<svg data-theme="dark" class="ch-container" x="0" y="0" width="634" height="107"><svg class="ch-domain-container" x="0" y="0"><svg class="ch-domain-container-animation-wrapper" width="634" height="107"><svg x="0" y="0" width="634" height="107" class="ch-domain y_2025"><rect width="634" height="107" class="ch-domain-bg"></rect><svg x="0" y="0" class="ch-subdomain-container"><g><rect class="ch-subdomain-bg" width="10" height="10" x="0" y="36" rx="2" ry="2" style="fill: rgb(255, 245, 235);"></rect></g><g><rect class="ch-subdomain-bg" width="10" height="10" x="0" y="48" rx="2" ry="2" style="fill: rgb(255, 245, 235);"></rect></g><g><rect class="ch-subdomain-bg" width="10" height="10" x="0" y="60" rx="2" ry="2" style="fill: rgb(255, 245, 235);"></rect></g><g><rect class="ch-subdomain-bg" width="10" height="10" x="0" y="72" rx="2" ry="2" style="fill: rgb(255, 245, 235);"></rect></g><g><rect class="ch-subdomain-bg" width="10" height="10" x="12" y="0" rx="2" ry="2" style="fill: rgb(255, 245, 235);"></rect></g><g><rect class="ch-subdomain-bg" width="10" height="10" x="12" y="12" rx="2" ry="2" style="fill: rgb(255, 245, 235);"></rect></g><g><rect class="ch-subdomain-bg" width="10" height="10" x="12" y="24" rx="2" ry="2" style="fill: rgb(255, 245, 235);"></rect></g><g><rect class="ch-subdomain-bg" width="10" height="10" x="12" y="36" rx="2" ry="2" style="fill: rgb(255, 245, 235);"></rect></g><g><rect class="ch-subdomain-bg" width="10" height="10" x="12" y="48" rx="2" ry="2" style="fill: rgb(255, 245, 235);"></rect></g><g><rect class="ch-subdomain-bg" width="10" height="10" x="12" y="60" rx="2" ry="2" style="fill: rgb(255, 245, 235);"></rect></g><g><rect class="ch-subdomain-bg" width="10" height="10" x="12" y="72" rx="2" ry="2" style="fill: rgb(255, 245, 235);"></rect></g><g><rect class="ch-subdomain-bg" width="10" height="10" x="24" y="0" rx="2" ry="2" style="fill: rgb(255, 245, 235);"></rect></g><g><rect class="ch-subdomain-bg" width="10" height="10" x="24" y="12" rx="2" ry="2" style="fill: rgb(255, 245, 235);"></rect></g><g><rect class="ch-subdomain-bg" width="10" height="10" x="24" y="24" rx="2" ry="2" style="fill: rgb(255, 245, 235);"></rect></g><g><rect class="ch-subdomain-bg" width="10" height="10" x="24" y="36" rx="2" ry="2" style="fill: rgb(255, 245, 235);"></rect></g><g><rect class="ch-subdomain-bg" width="10" height="10" x="24" y="48" rx="2" ry="2" style="fill: rgb(255, 245, 235);"></rect></g><g><rect class="ch-subdomain-bg" width="10" height="10" x="24" y="60" rx="2" ry="2" style="fill: rgb(255, 245, 235);"></rect></g><g><rect class="ch-subdomain-bg" width="10" height="10" x="24" y="72" rx="2" ry="2" style="fill: rgb(255, 245, 235);"></rect></g><g><rect class="ch-subdomain-bg" width="10" height="10" x="36" y="0" rx="2" ry="2" style="fill: rgb(255, 245, 235);"></rect></g><g><rect class="ch-subdomain-bg" width="10" height="10" x="36" y="12" rx="2" ry="2" style="fill: rgb(255, 245, 235);"></rect></g><g><rect class="ch-subdomain-bg" width="10" height="10" x="36" y="24" rx="2" ry="2" style="fill: rgb(255, 245, 235);"></rect></g><g><rect class="ch-subdomain-bg" width="10" height="10" x="36" y="36" rx="2" ry="2" style="fill: rgb(255, 245, 235);"></rect></g><g><rect class="ch-subdomain-bg" width="10" height="10" x="36" y="48" rx="2" ry="2" style="fill: rgb(255, 245, 235);"></rect></g><g><rect class="ch-subdomain-bg" width="10" height="10" x="36" y="60" rx="2" ry="2" style="fill: rgb(255, 245, 235);"></rect></g><g><rect class="ch-subdomain-bg" width="10" height="10" x="36" y="72" rx="2" ry="2" style="fill: rgb(255, 245, 235);"></rect></g><g><rect class="ch-subdomain-bg" width="10" height="10" x="48" y="0" rx="2" ry="2" style="fill: rgb(255, 245, 235);"></rect></g><g><rect class="ch-subdomain-bg" width="10" height="10" x="48" y="12" rx="2" ry="2" style="fill: rgb(255, 245, 235);"></rect></g><g><rect class="ch-subdomain-bg" width="10" height="10" x="48" y="24" rx="2" ry="2" style="fill: rgb(255, 245, 235);"></rect></g><g><rect class="ch-subdomain-bg" width="10" height="10" x="48" y="36" rx="2" ry="2" style="fill: rgb(255, 245, 235);"></rect></g><g><rect class="ch-subdomain-bg" width="10" height="10" x="48" y="48" rx="2" ry="2" style="fill: rgb(255, 245, 235);"></rect></g><g><rect class="ch-subdomain-bg" width="10" height="10" x="48" y="60" rx="2" ry="2" style="fill: rgb(255, 245, 235);"></rect></g><g><rect class="ch-subdomain-bg" width="10" height="10" x="48" y="72" rx="2" ry="2" style="fill: rgb(255, 245, 235);"></rect></g><g><rect class="ch-subdomain-bg" width="10" height="10" x="60" y="0" rx="2" ry="2" style="fill: rgb(255, 245, 235);"></rect></g><g><rect class="ch-subdomain-bg" width="10" height="10" x="60" y="12" rx="2" ry="2" style="fill: rgb(255, 245, 235);"></rect></g><g><rect class="ch-subdomain-bg" width="10" height="10" x="60" y="24" rx="2" ry="2" style="fill: rgb(255, 245, 235);"></rect></g><g><rect class="ch-subdomain-bg" width="10" height="10" x="60" y="36" rx="2" ry="2" style="fill: rgb(255, 245, 235);"></rect></g><g><rect class="ch-subdomain-bg" width="10" height="10" x="60" y="48" rx="2" ry="2" style="fill: rgb(255, 245, 235);"></rect></g><g><rect class="ch-subdomain-bg" width="10" height="10" x="60" y="60" rx="2" ry="2" style="fill: rgb(255, 245, 235);"></rect></g><g><rect class="ch-subdomain-bg" width="10" height="10" x="60" y="72" rx="2" ry="2" style="fill: rgb(255, 245, 235);"></rect></g><g><rect class="ch-subdomain-bg" width="10" height="10" x="72" y="0" rx="2" ry="2" style="fill: rgb(255, 245, 235);"></rect></g><g><rect class="ch-subdomain-bg" width="10" height="10" x="72" y="12" rx="2" ry="2" style="fill: rgb(255, 245, 235);"></rect></g><g><rect class="ch-subdomain-bg" width="10" height="10" x="72" y="24" rx="2" ry="2" style="fill: rgb(255, 245, 235);"></rect></g><g><rect class="ch-subdomain-bg" width="10" height="10" x="72" y="36" rx="2" ry="2" style="fill: rgb(255, 245, 235);"></rect></g><g><rect class="ch-subdomain-bg" width="10" height="10" x="72" y="48" rx="2" ry="2" style="fill: rgb(255, 245, 235);"></rect></g><g><rect class="ch-subdomain-bg" width="10" height="10" x="72" y="60" rx="2" ry="2" style="fill: rgb(255, 245, 235);"></rect></g><g><rect class="ch-subdomain-bg" width="10" height="10" x="72" y="72" rx="2" ry="2" style="fill: rgb(255, 245, 235);"></rect></g><g><rect class="ch-subdomain-bg" width="10" height="10" x="84" y="0" rx="2" ry="2" style="fill: rgb(255, 245, 235);"></rect></g><g><rect class="ch-subdomain-bg" width="10" height="10" x="84" y="12" rx="2" ry="2" style="fill: rgb(255, 245, 235);"></rect></g><g><rect class="ch-subdomain-bg" width="10" height="10" x="84" y="24" rx="2" ry="2" style="fill: rgb(255, 245, 235);"></rect></g><g><rect class="ch-subdomain-bg" width="10" height="10" x="84" y="36" rx="2" ry="2" style="fill: rgb(255, 245, 235);"></rect></g><g><rect class="ch-subdomain-bg" width="10" height="10" x="84" y="48" rx="2" ry="2" style="fill: rgb(255, 245, 235);"></rect></g><g><rect class="ch-subdomain-bg" width="10" height="10" x="84" y="60" rx="2" ry="2" style="fill: rgb(255, 245, 235);"></rect></g><g><rect class="ch-subdomain-bg" width="10" height="10" x="84" y="72" rx="2" ry="2" style="fill: rgb(255, 245, 235);"></rect></g><g><rect class="ch-subdomain-bg" width="10" height="10" x="96" y="0" rx="2" ry="2" style="fill: rgb(255, 245, 235);"></rect></g><g><rect class="ch-subdomain-bg" width="10" height="10" x="96" y="12" rx="2" ry="2" style="fill: rgb(255, 245, 235);"></rect></g><g><rect class="ch-subdomain-bg" width="10" height="10" x="96" y="24" rx="2" ry="2" style="fill: rgb(255, 245, 235);"></rect></g><g><rect class="ch-subdomain-bg" width="10" height="10" x="96" y="36" rx="2" ry="2" style="fill: rgb(255, 245, 235);"></rect></g><g><rect class="ch-subdomain-bg" width="10" height="10" x="96" y="48" rx="2" ry="2" style="fill: rgb(255, 245, 235);"></rect></g><g><rect class="ch-subdomain-bg" width="10" height="10" x="96" y="60" rx="2" ry="2" style="fill: rgb(255, 245, 235);"></rect></g><g><rect class="ch-subdomain-bg" width="10" height="10" x="96" y="72" rx="2" ry="2" style="fill: rgb(255, 245, 235);"></rect></g><g><rect class="ch-subdomain-bg" width="10" height="10" x="108" y="0" rx="2" ry="2" style="fill: rgb(255, 245, 235);"></rect></g><g><rect class="ch-subdomain-bg" width="10" height="10" x="108" y="12" rx="2" ry="2" style="fill: rgb(255, 245, 235);"></rect></g><g><rect class="ch-subdomain-bg" width="10" height="10" x="108" y="24" rx="2" ry="2" style="fill: rgb(255, 245, 235);"></rect></g><g><rect class="ch-subdomain-bg" width="10" height="10" x="108" y="36" rx="2" ry="2" style="fill: rgb(255, 245, 235);"></rect></g><g><rect class="ch-subdomain-bg" width="10" height="10" x="108" y="48" rx="2" ry="2" style="fill: rgb(255, 245, 235);"></rect></g><g><rect class="ch-subdomain-bg" width="10" height="10" x="108" y="60" rx="2" ry="2" style="fill: rgb(255, 245, 235);"></rect></g><g><rect class="ch-subdomain-bg" width="10" height="10" x="108" y="72" rx="2" ry="2" style="fill: rgb(255, 245, 235);"></rect></g><g><rect class="ch-subdomain-bg" width="10" height="10" x="120" y="0" rx="2" ry="2" style="fill: rgb(255, 245, 235);"></rect></g><g><rect class="ch-subdomain-bg" width="10" height="10" x="120" y="12" rx="2" ry="2" style="fill: rgb(255, 245, 235);"></rect></g><g><rect class="ch-subdomain-bg" width="10" height="10" x="120" y="24" rx="2" ry="2" style="fill: rgb(255, 245, 235);"></rect></g><g><rect class="ch-subdomain-bg" width="10" height="10" x="120" y="36" rx="2" ry="2" style="fill: rgb(255, 245, 235);"></rect></g><g><rect class="ch-subdomain-bg" width="10" height="10" x="120" y="48" rx="2" ry="2" style="fill: rgb(255, 245, 235);"></rect></g><g><rect class="ch-subdomain-bg" width="10" height="10" x="120" y="60" rx="2" ry="2" style="fill: rgb(255, 245, 235);"></rect></g><g><rect class="ch-subdomain-bg" width="10" height="10" x="120" y="72" rx="2" ry="2" style="fill: rgb(255, 245, 235);"></rect></g><g><rect class="ch-subdomain-bg" width="10" height="10" x="132" y="0" rx="2" ry="2" style="fill: rgb(255, 245, 235);"></rect></g><g><rect class="ch-subdomain-bg" width="10" height="10" x="132" y="12" rx="2" ry="2" style="fill: rgb(255, 245, 235);"></rect></g><g><rect class="ch-subdomain-bg" width="10" height="10" x="132" y="24" rx="2" ry="2" style="fill: rgb(255, 245, 235);"></rect></g><g><rect class="ch-subdomain-bg" width="10" height="10" x="132" y="36" rx="2" ry="2" style="fill: rgb(255, 245, 235);"></rect></g><g><rect class="ch-subdomain-bg" width="10" height="10" x="132" y="48" rx="2" ry="2" style="fill: rgb(255, 245, 235);"></rect></g><g><rect class="ch-subdomain-bg" width="10" height="10" x="132" y="60" rx="2" ry="2" style="fill: rgb(255, 245, 235);"></rect></g><g><rect class="ch-subdomain-bg" width="10" height="10" x="132" y="72" rx="2" ry="2" style="fill: rgb(255, 245, 235);"></rect></g><g><rect class="ch-subdomain-bg" width="10" height="10" x="144" y="0" rx="2" ry="2" style="fill: rgb(255, 245, 235);"></rect></g><g><rect class="ch-subdomain-bg" width="10" height="10" x="144" y="12" rx="2" ry="2" style="fill: rgb(255, 245, 235);"></rect></g><g><rect class="ch-subdomain-bg" width="10" height="10" x="144" y="24" rx="2" ry="2" style="fill: rgb(255, 245, 235);"></rect></g><g><rect class="ch-subdomain-bg" width="10" height="10" x="144" y="36" rx="2" ry="2" style="fill: rgb(255, 245, 235);"></rect></g><g><rect class="ch-subdomain-bg" width="10" height="10" x="144" y="48" rx="2" ry="2" style="fill: rgb(255, 245, 235);"></rect></g><g><rect class="ch-subdomain-bg" width="10" height="10" x="144" y="60" rx="2" ry="2" style="fill: rgb(255, 245, 235);"></rect></g><g><rect class="ch-subdomain-bg" width="10" height="10" x="144" y="72" rx="2" ry="2" style="fill: rgb(255, 245, 235);"></rect></g><g><rect class="ch-subdomain-bg" width="10" height="10" x="156" y="0" rx="2" ry="2" style="fill: rgb(253, 213, 173);"></rect></g><g><rect class="ch-subdomain-bg" width="10" height="10" x="156" y="12" rx="2" ry="2" style="fill: rgb(127, 39, 4);"></rect></g><g><rect class="ch-subdomain-bg" width="10" height="10" x="156" y="24" rx="2" ry="2" style="fill: rgb(253, 200, 150);"></rect></g><g><rect class="ch-subdomain-bg" width="10" height="10" x="156" y="36" rx="2" ry="2" style="fill: rgb(254, 231, 208);"></rect></g><g><rect class="ch-subdomain-bg" width="10" height="10" x="156" y="48" rx="2" ry="2" style="fill: rgb(253, 190, 133);"></rect></g><g><rect class="ch-subdomain-bg" width="10" height="10" x="156" y="60" rx="2" ry="2" style="fill: rgb(254, 234, 213);"></rect></g><g><rect class="ch-subdomain-bg" width="10" height="10" x="156" y="72" rx="2" ry="2" style="fill: rgb(127, 39, 4);"></rect></g><g><rect class="ch-subdomain-bg" width="10" height="10" x="168" y="0" rx="2" ry="2" style="fill: rgb(254, 224, 193);"></rect></g><g><rect class="ch-subdomain-bg" width="10" height="10" x="168" y="12" rx="2" ry="2" style="fill: rgb(127, 39, 4);"></rect></g><g><rect class="ch-subdomain-bg" width="10" height="10" x="168" y="24" rx="2" ry="2" style="fill: rgb(254, 232, 211);"></rect></g><g><rect class="ch-subdomain-bg" width="10" height="10" x="168" y="36" rx="2" ry="2" style="fill: rgb(255, 245, 235);"></rect></g><g><rect class="ch-subdomain-bg" width="10" height="10" x="168" y="48" rx="2" ry="2" style="fill: rgb(127, 39, 4);"></rect></g><g><rect class="ch-subdomain-bg" width="10" height="10" x="168" y="60" rx="2" ry="2" style="fill: rgb(254, 230, 206);"></rect></g><g><rect class="ch-subdomain-bg" width="10" height="10" x="168" y="72" rx="2" ry="2" style="fill: rgb(253, 218, 182);"></rect></g><g><rect class="ch-subdomain-bg" width="10" height="10" x="180" y="0" rx="2" ry="2" style="fill: rgb(177, 58, 3);"></rect></g><g><rect class="ch-subdomain-bg" width="10" height="10" x="180" y="12" rx="2" ry="2" style="fill: rgb(254, 231, 208);"></rect></g><g><rect class="ch-subdomain-bg" width="10" height="10" x="180" y="24" rx="2" ry="2" style="fill: rgb(253, 163, 92);"></rect></g><g><rect class="ch-subdomain-bg" width="10" height="10" x="180" y="36" rx="2" ry="2" style="fill: rgb(253, 211, 170);"></rect></g><g><rect class="ch-subdomain-bg" width="10" height="10" x="180" y="48" rx="2" ry="2" style="fill: rgb(252, 150, 73);"></rect></g><g><rect class="ch-subdomain-bg" width="10" height="10" x="180" y="60" rx="2" ry="2" style="fill: rgb(253, 194, 140);"></rect></g><g><rect class="ch-subdomain-bg" width="10" height="10" x="180" y="72" rx="2" ry="2" style="fill: rgb(254, 228, 201);"></rect></g><g><rect class="ch-subdomain-bg" width="10" height="10" x="192" y="0" rx="2" ry="2" style="fill: rgb(127, 39, 4);"></rect></g><g><rect class="ch-subdomain-bg" width="10" height="10" x="192" y="12" rx="2" ry="2" style="fill: rgb(255, 238, 221);"></rect></g><g><rect class="ch-subdomain-bg" width="10" height="10" x="192" y="24" rx="2" ry="2" style="fill: rgb(253, 202, 153);"></rect></g><g><rect class="ch-subdomain-bg" width="10" height="10" x="192" y="36" rx="2" ry="2" style="fill: rgb(255, 238, 221);"></rect></g><g><rect class="ch-subdomain-bg" width="10" height="10" x="192" y="48" rx="2" ry="2" style="fill: rgb(253, 211, 170);"></rect></g><g><rect class="ch-subdomain-bg" width="10" height="10" x="192" y="60" rx="2" ry="2" style="fill: rgb(255, 240, 225);"></rect></g><g><rect class="ch-subdomain-bg" width="10" height="10" x="192" y="72" rx="2" ry="2" style="fill: rgb(254, 229, 204);"></rect></g><g><rect class="ch-subdomain-bg" width="10" height="10" x="204" y="0" rx="2" ry="2" style="fill: rgb(127, 39, 4);"></rect></g><g><rect class="ch-subdomain-bg" width="10" height="10" x="204" y="12" rx="2" ry="2" style="fill: rgb(254, 228, 201);"></rect></g><g><rect class="ch-subdomain-bg" width="10" height="10" x="204" y="24" rx="2" ry="2" style="fill: rgb(253, 218, 182);"></rect></g><g><rect class="ch-subdomain-bg" width="10" height="10" x="204" y="36" rx="2" ry="2" style="fill: rgb(254, 235, 215);"></rect></g><g><rect class="ch-subdomain-bg" width="10" height="10" x="204" y="48" rx="2" ry="2" style="fill: rgb(171, 56, 3);"></rect></g><g><rect class="ch-subdomain-bg" width="10" height="10" x="204" y="60" rx="2" ry="2" style="fill: rgb(254, 229, 204);"></rect></g><g><rect class="ch-subdomain-bg" width="10" height="10" x="204" y="72" rx="2" ry="2" style="fill: rgb(255, 245, 235);"></rect></g><g><rect class="ch-subdomain-bg" width="10" height="10" x="216" y="0" rx="2" ry="2" style="fill: rgb(253, 206, 160);"></rect></g><g><rect class="ch-subdomain-bg" width="10" height="10" x="216" y="12" rx="2" ry="2" style="fill: rgb(255, 241, 227);"></rect></g><g><rect class="ch-subdomain-bg" width="10" height="10" x="216" y="24" rx="2" ry="2" style="fill: rgb(253, 190, 133);"></rect></g><g><rect class="ch-subdomain-bg" width="10" height="10" x="216" y="36" rx="2" ry="2" style="fill: rgb(254, 228, 201);"></rect></g><g><rect class="ch-subdomain-bg" width="10" height="10" x="216" y="48" rx="2" ry="2" style="fill: rgb(127, 39, 4);"></rect></g><g><rect class="ch-subdomain-bg" width="10" height="10" x="216" y="60" rx="2" ry="2" style="fill: rgb(254, 222, 191);"></rect></g><g><rect class="ch-subdomain-bg" width="10" height="10" x="216" y="72" rx="2" ry="2" style="fill: rgb(254, 228, 201);"></rect></g><g><rect class="ch-subdomain-bg" width="10" height="10" x="228" y="0" rx="2" ry="2" style="fill: rgb(253, 213, 173);"></rect></g><g><rect class="ch-subdomain-bg" width="10" height="10" x="228" y="12" rx="2" ry="2" style="fill: rgb(255, 241, 227);"></rect></g><g><rect class="ch-subdomain-bg" width="10" height="10" x="228" y="24" rx="2" ry="2" style="fill: rgb(253, 216, 179);"></rect></g><g><rect class="ch-subdomain-bg" width="10" height="10" x="228" y="36" rx="2" ry="2" style="fill: rgb(254, 236, 217);"></rect></g><g><rect class="ch-subdomain-bg" width="10" height="10" x="228" y="48" rx="2" ry="2" style="fill: rgb(253, 218, 182);"></rect></g><g><rect class="ch-subdomain-bg" width="10" height="10" x="228" y="60" rx="2" ry="2" style="fill: rgb(254, 234, 213);"></rect></g><g><rect class="ch-subdomain-bg" width="10" height="10" x="228" y="72" rx="2" ry="2" style="fill: rgb(253, 211, 170);"></rect></g><g><rect class="ch-subdomain-bg" width="10" height="10" x="240" y="0" rx="2" ry="2" style="fill: rgb(254, 229, 204);"></rect></g><g><rect class="ch-subdomain-bg" width="10" height="10" x="240" y="12" rx="2" ry="2" style="fill: rgb(253, 211, 170);"></rect></g><g><rect class="ch-subdomain-bg" width="10" height="10" x="240" y="24" rx="2" ry="2" style="fill: rgb(255, 245, 235);"></rect></g><g><rect class="ch-subdomain-bg" width="10" height="10" x="240" y="36" rx="2" ry="2" style="fill: rgb(255, 245, 235);"></rect></g><g><rect class="ch-subdomain-bg" width="10" height="10" x="240" y="48" rx="2" ry="2" style="fill: rgb(253, 215, 176);"></rect></g><g><rect class="ch-subdomain-bg" width="10" height="10" x="240" y="60" rx="2" ry="2" style="fill: rgb(254, 230, 206);"></rect></g><g><rect class="ch-subdomain-bg" width="10" height="10" x="240" y="72" rx="2" ry="2" style="fill: rgb(255, 245, 235);"></rect></g><g><rect class="ch-subdomain-bg" width="10" height="10" x="252" y="0" rx="2" ry="2" style="fill: rgb(254, 232, 211);"></rect></g><g><rect class="ch-subdomain-bg" width="10" height="10" x="252" y="12" rx="2" ry="2" style="fill: rgb(151, 48, 3);"></rect></g><g><rect class="ch-subdomain-bg" width="10" height="10" x="252" y="24" rx="2" ry="2" style="fill: rgb(255, 243, 231);"></rect></g><g><rect class="ch-subdomain-bg" width="10" height="10" x="252" y="36" rx="2" ry="2" style="fill: rgb(253, 210, 167);"></rect></g><g><rect class="ch-subdomain-bg" width="10" height="10" x="252" y="48" rx="2" ry="2" style="fill: rgb(253, 211, 170);"></rect></g><g><rect class="ch-subdomain-bg" width="10" height="10" x="252" y="60" rx="2" ry="2" style="fill: rgb(255, 242, 229);"></rect></g><g><rect class="ch-subdomain-bg" width="10" height="10" x="252" y="72" rx="2" ry="2" style="fill: rgb(255, 240, 225);"></rect></g><g><rect class="ch-subdomain-bg" width="10" height="10" x="264" y="0" rx="2" ry="2" style="fill: rgb(253, 210, 167);"></rect></g><g><rect class="ch-subdomain-bg" width="10" height="10" x="264" y="12" rx="2" ry="2" style="fill: rgb(253, 210, 167);"></rect></g><g><rect class="ch-subdomain-bg" width="10" height="10" x="264" y="24" rx="2" ry="2" style="fill: rgb(254, 222, 191);"></rect></g><g><rect class="ch-subdomain-bg" width="10" height="10" x="264" y="36" rx="2" ry="2" style="fill: rgb(253, 216, 179);"></rect></g><g><rect class="ch-subdomain-bg" width="10" height="10" x="264" y="48" rx="2" ry="2" style="fill: rgb(254, 226, 199);"></rect></g><g><rect class="ch-subdomain-bg" width="10" height="10" x="264" y="60" rx="2" ry="2" style="fill: rgb(254, 222, 191);"></rect></g><g><rect class="ch-subdomain-bg" width="10" height="10" x="264" y="72" rx="2" ry="2" style="fill: rgb(254, 232, 211);"></rect></g><g><rect class="ch-subdomain-bg" width="10" height="10" x="276" y="0" rx="2" ry="2" style="fill: rgb(254, 237, 219);"></rect></g><g><rect class="ch-subdomain-bg" width="10" height="10" x="276" y="12" rx="2" ry="2" style="fill: rgb(255, 240, 225);"></rect></g><g><rect class="ch-subdomain-bg" width="10" height="10" x="276" y="24" rx="2" ry="2" style="fill: rgb(253, 179, 115);"></rect></g><g><rect class="ch-subdomain-bg" width="10" height="10" x="276" y="36" rx="2" ry="2" style="fill: rgb(253, 190, 133);"></rect></g><g><rect class="ch-subdomain-bg" width="10" height="10" x="276" y="48" rx="2" ry="2" style="fill: rgb(253, 215, 176);"></rect></g><g><rect class="ch-subdomain-bg" width="10" height="10" x="276" y="60" rx="2" ry="2" style="fill: rgb(255, 242, 229);"></rect></g><g><rect class="ch-subdomain-bg" width="10" height="10" x="276" y="72" rx="2" ry="2" style="fill: rgb(255, 245, 235);"></rect></g><g><rect class="ch-subdomain-bg" width="10" height="10" x="288" y="0" rx="2" ry="2" style="fill: rgb(254, 229, 204);"></rect></g><g><rect class="ch-subdomain-bg" width="10" height="10" x="288" y="12" rx="2" ry="2" style="fill: rgb(253, 210, 167);"></rect></g><g><rect class="ch-subdomain-bg" width="10" height="10" x="288" y="24" rx="2" ry="2" style="fill: rgb(253, 167, 98);"></rect></g><g><rect class="ch-subdomain-bg" width="10" height="10" x="288" y="36" rx="2" ry="2" style="fill: rgb(254, 224, 193);"></rect></g><g><rect class="ch-subdomain-bg" width="10" height="10" x="288" y="48" rx="2" ry="2" style="fill: rgb(254, 229, 204);"></rect></g><g><rect class="ch-subdomain-bg" width="10" height="10" x="288" y="60" rx="2" ry="2" style="fill: rgb(255, 245, 235);"></rect></g><g><rect class="ch-subdomain-bg" width="10" height="10" x="288" y="72" rx="2" ry="2" style="fill: rgb(255, 242, 229);"></rect></g><g><rect class="ch-subdomain-bg" width="10" height="10" x="300" y="0" rx="2" ry="2" style="fill: rgb(254, 232, 211);"></rect></g><g><rect class="ch-subdomain-bg" width="10" height="10" x="300" y="12" rx="2" ry="2" style="fill: rgb(253, 211, 170);"></rect></g><g><rect class="ch-subdomain-bg" width="10" height="10" x="300" y="24" rx="2" ry="2" style="fill: rgb(253, 218, 182);"></rect></g><g><rect class="ch-subdomain-bg" width="10" height="10" x="300" y="36" rx="2" ry="2" style="fill: rgb(253, 216, 179);"></rect></g><g><rect class="ch-subdomain-bg" width="10" height="10" x="300" y="48" rx="2" ry="2" style="fill: rgb(254, 237, 219);"></rect></g><g><rect class="ch-subdomain-bg" width="10" height="10" x="300" y="60" rx="2" ry="2" style="fill: rgb(254, 229, 204);"></rect></g><g><rect class="ch-subdomain-bg" width="10" height="10" x="300" y="72" rx="2" ry="2" style="fill: rgb(255, 243, 231);"></rect></g><g><rect class="ch-subdomain-bg" width="10" height="10" x="312" y="0" rx="2" ry="2" style="fill: rgb(255, 245, 235);"></rect></g><g><rect class="ch-subdomain-bg" width="10" height="10" x="312" y="12" rx="2" ry="2" style="fill: rgb(255, 245, 235);"></rect></g><g><rect class="ch-subdomain-bg" width="10" height="10" x="312" y="24" rx="2" ry="2" style="fill: rgb(253, 190, 133);"></rect></g><g><rect class="ch-subdomain-bg" width="10" height="10" x="312" y="36" rx="2" ry="2" style="fill: rgb(253, 216, 179);"></rect></g><g><rect class="ch-subdomain-bg" width="10" height="10" x="312" y="48" rx="2" ry="2" style="fill: rgb(254, 229, 204);"></rect></g><g><rect class="ch-subdomain-bg" width="10" height="10" x="312" y="60" rx="2" ry="2" style="fill: rgb(254, 226, 199);"></rect></g><g><rect class="ch-subdomain-bg" width="10" height="10" x="312" y="72" rx="2" ry="2" style="fill: rgb(253, 190, 133);"></rect></g><g><rect class="ch-subdomain-bg" width="10" height="10" x="324" y="0" rx="2" ry="2" style="fill: rgb(255, 238, 221);"></rect></g><g><rect class="ch-subdomain-bg" width="10" height="10" x="324" y="12" rx="2" ry="2" style="fill: rgb(254, 226, 199);"></rect></g><g><rect class="ch-subdomain-bg" width="10" height="10" x="324" y="24" rx="2" ry="2" style="fill: rgb(254, 228, 201);"></rect></g><g><rect class="ch-subdomain-bg" width="10" height="10" x="324" y="36" rx="2" ry="2" style="fill: rgb(254, 225, 196);"></rect></g><g><rect class="ch-subdomain-bg" width="10" height="10" x="324" y="48" rx="2" ry="2" style="fill: rgb(255, 243, 231);"></rect></g><g><rect class="ch-subdomain-bg" width="10" height="10" x="324" y="60" rx="2" ry="2" style="fill: rgb(254, 226, 199);"></rect></g><g><rect class="ch-subdomain-bg" width="10" height="10" x="324" y="72" rx="2" ry="2" style="fill: rgb(255, 245, 235);"></rect></g><g><rect class="ch-subdomain-bg" width="10" height="10" x="336" y="0" rx="2" ry="2" style="fill: rgb(254, 236, 217);"></rect></g><g><rect class="ch-subdomain-bg" width="10" height="10" x="336" y="12" rx="2" ry="2" style="fill: rgb(254, 235, 215);"></rect></g><g><rect class="ch-subdomain-bg" width="10" height="10" x="336" y="24" rx="2" ry="2" style="fill: rgb(254, 222, 191);"></rect></g><g><rect class="ch-subdomain-bg" width="10" height="10" x="336" y="36" rx="2" ry="2" style="fill: rgb(253, 192, 136);"></rect></g><g><rect class="ch-subdomain-bg" width="10" height="10" x="336" y="48" rx="2" ry="2" style="fill: rgb(254, 230, 206);"></rect></g><g><rect class="ch-subdomain-bg" width="10" height="10" x="336" y="60" rx="2" ry="2" style="fill: rgb(250, 134, 52);"></rect></g><g><rect class="ch-subdomain-bg" width="10" height="10" x="336" y="72" rx="2" ry="2" style="fill: rgb(255, 240, 225);"></rect></g><g><rect class="ch-subdomain-bg" width="10" height="10" x="348" y="0" rx="2" ry="2" style="fill: rgb(255, 243, 231);"></rect></g><g><rect class="ch-subdomain-bg" width="10" height="10" x="348" y="12" rx="2" ry="2" style="fill: rgb(254, 237, 219);"></rect></g><g><rect class="ch-subdomain-bg" width="10" height="10" x="348" y="24" rx="2" ry="2" style="fill: rgb(255, 242, 229);"></rect></g><g><rect class="ch-subdomain-bg" width="10" height="10" x="348" y="36" rx="2" ry="2" style="fill: rgb(255, 245, 235);"></rect></g><g><rect class="ch-subdomain-bg" width="10" height="10" x="348" y="48" rx="2" ry="2" style="fill: rgb(252, 150, 73);"></rect></g><g><rect class="ch-subdomain-bg" width="10" height="10" x="348" y="60" rx="2" ry="2" style="fill: rgb(254, 236, 217);"></rect></g><g><rect class="ch-subdomain-bg" width="10" height="10" x="348" y="72" rx="2" ry="2" style="fill: rgb(255, 245, 235);"></rect></g><g><rect class="ch-subdomain-bg" width="10" height="10" x="360" y="0" rx="2" ry="2" style="fill: rgb(254, 237, 219);"></rect></g><g><rect class="ch-subdomain-bg" width="10" height="10" x="360" y="12" rx="2" ry="2" style="fill: rgb(253, 211, 170);"></rect></g><g><rect class="ch-subdomain-bg" width="10" height="10" x="360" y="24" rx="2" ry="2" style="fill: rgb(253, 181, 119);"></rect></g><g><rect class="ch-subdomain-bg" width="10" height="10" x="360" y="36" rx="2" ry="2" style="fill: rgb(253, 176, 112);"></rect></g><g><rect class="ch-subdomain-bg" width="10" height="10" x="360" y="48" rx="2" ry="2" style="fill: rgb(253, 163, 92);"></rect></g><g><rect class="ch-subdomain-bg" width="10" height="10" x="360" y="60" rx="2" ry="2" style="fill: rgb(254, 229, 204);"></rect></g><g><rect class="ch-subdomain-bg" width="10" height="10" x="360" y="72" rx="2" ry="2" style="fill: rgb(254, 228, 201);"></rect></g><g><rect class="ch-subdomain-bg" width="10" height="10" x="372" y="0" rx="2" ry="2" style="fill: rgb(254, 237, 219);"></rect></g><g><rect class="ch-subdomain-bg" width="10" height="10" x="372" y="12" rx="2" ry="2" style="fill: rgb(254, 228, 201);"></rect></g><g><rect class="ch-subdomain-bg" width="10" height="10" x="372" y="24" rx="2" ry="2" style="fill: rgb(253, 154, 79);"></rect></g><g><rect class="ch-subdomain-bg" width="10" height="10" x="372" y="36" rx="2" ry="2" style="fill: rgb(255, 244, 233);"></rect></g><g><rect class="ch-subdomain-bg" width="10" height="10" x="372" y="48" rx="2" ry="2" style="fill: rgb(255, 245, 235);"></rect></g><g><rect class="ch-subdomain-bg" width="10" height="10" x="372" y="60" rx="2" ry="2" style="fill: rgb(255, 245, 235);"></rect></g><g><rect class="ch-subdomain-bg" width="10" height="10" x="372" y="72" rx="2" ry="2" style="fill: rgb(254, 222, 191);"></rect></g><g><rect class="ch-subdomain-bg" width="10" height="10" x="384" y="0" rx="2" ry="2" style="fill: rgb(255, 245, 235);"></rect></g><g><rect class="ch-subdomain-bg" width="10" height="10" x="384" y="12" rx="2" ry="2" style="fill: rgb(254, 231, 208);"></rect></g><g><rect class="ch-subdomain-bg" width="10" height="10" x="384" y="24" rx="2" ry="2" style="fill: rgb(254, 230, 206);"></rect></g><g><rect class="ch-subdomain-bg" width="10" height="10" x="384" y="36" rx="2" ry="2" style="fill: rgb(253, 208, 163);"></rect></g><g><rect class="ch-subdomain-bg" width="10" height="10" x="384" y="48" rx="2" ry="2" style="fill: rgb(253, 215, 176);"></rect></g><g><rect class="ch-subdomain-bg" width="10" height="10" x="384" y="60" rx="2" ry="2" style="fill: rgb(254, 224, 193);"></rect></g><g><rect class="ch-subdomain-bg" width="10" height="10" x="384" y="72" rx="2" ry="2" style="fill: rgb(254, 229, 204);"></rect></g><g><rect class="ch-subdomain-bg" width="10" height="10" x="396" y="0" rx="2" ry="2" style="fill: rgb(254, 232, 211);"></rect></g><g><rect class="ch-subdomain-bg" width="10" height="10" x="396" y="12" rx="2" ry="2" style="fill: rgb(253, 218, 182);"></rect></g><g><rect class="ch-subdomain-bg" width="10" height="10" x="396" y="24" rx="2" ry="2" style="fill: rgb(253, 196, 143);"></rect></g><g><rect class="ch-subdomain-bg" width="10" height="10" x="396" y="36" rx="2" ry="2" style="fill: rgb(253, 206, 160);"></rect></g><g><rect class="ch-subdomain-bg" width="10" height="10" x="396" y="48" rx="2" ry="2" style="fill: rgb(253, 206, 160);"></rect></g><g><rect class="ch-subdomain-bg" width="10" height="10" x="396" y="60" rx="2" ry="2" style="fill: rgb(254, 221, 188);"></rect></g><g><rect class="ch-subdomain-bg" width="10" height="10" x="396" y="72" rx="2" ry="2" style="fill: rgb(253, 218, 182);"></rect></g><g><rect class="ch-subdomain-bg" width="10" height="10" x="408" y="0" rx="2" ry="2" style="fill: rgb(255, 243, 231);"></rect></g><g><rect class="ch-subdomain-bg" width="10" height="10" x="408" y="12" rx="2" ry="2" style="fill: rgb(254, 230, 206);"></rect></g><g><rect class="ch-subdomain-bg" width="10" height="10" x="408" y="24" rx="2" ry="2" style="fill: rgb(253, 208, 163);"></rect></g><g><rect class="ch-subdomain-bg" width="10" height="10" x="408" y="36" rx="2" ry="2" style="fill: rgb(253, 206, 160);"></rect></g><g><rect class="ch-subdomain-bg" width="10" height="10" x="408" y="48" rx="2" ry="2" style="fill: rgb(253, 179, 115);"></rect></g><g><rect class="ch-subdomain-bg" width="10" height="10" x="408" y="60" rx="2" ry="2" style="fill: rgb(254, 228, 201);"></rect></g><g><rect class="ch-subdomain-bg" width="10" height="10" x="408" y="72" rx="2" ry="2" style="fill: rgb(253, 172, 105);"></rect></g><g><rect class="ch-subdomain-bg" width="10" height="10" x="420" y="0" rx="2" ry="2" style="fill: rgb(255, 238, 221);"></rect></g><g><rect class="ch-subdomain-bg" width="10" height="10" x="420" y="12" rx="2" ry="2" style="fill: rgb(253, 200, 150);"></rect></g><g><rect class="ch-subdomain-bg" width="10" height="10" x="420" y="24" rx="2" ry="2" style="fill: rgb(254, 229, 204);"></rect></g><g><rect class="ch-subdomain-bg" width="10" height="10" x="420" y="36" rx="2" ry="2" style="fill: rgb(255, 245, 235);"></rect></g><g><rect class="ch-subdomain-bg" width="10" height="10" x="420" y="48" rx="2" ry="2" style="fill: rgb(254, 226, 199);"></rect></g><g><rect class="ch-subdomain-bg" width="10" height="10" x="420" y="60" rx="2" ry="2" style="fill: rgb(254, 232, 211);"></rect></g><g><rect class="ch-subdomain-bg" width="10" height="10" x="420" y="72" rx="2" ry="2" style="fill: rgb(255, 242, 229);"></rect></g><g><rect class="ch-subdomain-bg" width="10" height="10" x="432" y="0" rx="2" ry="2" style="fill: rgb(254, 232, 211);"></rect></g><g><rect class="ch-subdomain-bg" width="10" height="10" x="432" y="12" rx="2" ry="2" style="fill: rgb(253, 167, 98);"></rect></g><g><rect class="ch-subdomain-bg" width="10" height="10" x="432" y="24" rx="2" ry="2" style="fill: rgb(253, 210, 167);"></rect></g><g><rect class="ch-subdomain-bg" width="10" height="10" x="432" y="36" rx="2" ry="2" style="fill: rgb(253, 208, 163);"></rect></g><g><rect class="ch-subdomain-bg" width="10" height="10" x="432" y="48" rx="2" ry="2" style="fill: rgb(253, 194, 140);"></rect></g><g><rect class="ch-subdomain-bg" width="10" height="10" x="432" y="60" rx="2" ry="2" style="fill: rgb(254, 231, 208);"></rect></g><g><rect class="ch-subdomain-bg" width="10" height="10" x="432" y="72" rx="2" ry="2" style="fill: rgb(255, 238, 221);"></rect></g><g><rect class="ch-subdomain-bg" width="10" height="10" x="444" y="0" rx="2" ry="2" style="fill: rgb(255, 240, 225);"></rect></g><g><rect class="ch-subdomain-bg" width="10" height="10" x="444" y="12" rx="2" ry="2" style="fill: rgb(254, 231, 208);"></rect></g><g><rect class="ch-subdomain-bg" width="10" height="10" x="444" y="24" rx="2" ry="2" style="fill: rgb(253, 172, 105);"></rect></g><g><rect class="ch-subdomain-bg" width="10" height="10" x="444" y="36" rx="2" ry="2" style="fill: rgb(254, 228, 201);"></rect></g><g><rect class="ch-subdomain-bg" width="10" height="10" x="444" y="48" rx="2" ry="2" style="fill: rgb(253, 192, 136);"></rect></g><g><rect class="ch-subdomain-bg" width="10" height="10" x="444" y="60" rx="2" ry="2" style="fill: rgb(254, 235, 215);"></rect></g><g><rect class="ch-subdomain-bg" width="10" height="10" x="444" y="72" rx="2" ry="2" style="fill: rgb(255, 238, 221);"></rect></g><g><rect class="ch-subdomain-bg" width="10" height="10" x="456" y="0" rx="2" ry="2" style="fill: rgb(254, 224, 193);"></rect></g><g><rect class="ch-subdomain-bg" width="10" height="10" x="456" y="12" rx="2" ry="2" style="fill: rgb(254, 232, 211);"></rect></g><g><rect class="ch-subdomain-bg" width="10" height="10" x="456" y="24" rx="2" ry="2" style="fill: rgb(255, 245, 235);"></rect></g><g><rect class="ch-subdomain-bg" width="10" height="10" x="456" y="36" rx="2" ry="2" style="fill: rgb(254, 236, 217);"></rect></g><g><rect class="ch-subdomain-bg" width="10" height="10" x="456" y="48" rx="2" ry="2" style="fill: rgb(253, 200, 150);"></rect></g><g><rect class="ch-subdomain-bg" width="10" height="10" x="456" y="60" rx="2" ry="2" style="fill: rgb(254, 222, 191);"></rect></g><g><rect class="ch-subdomain-bg" width="10" height="10" x="456" y="72" rx="2" ry="2" style="fill: rgb(255, 245, 235);"></rect></g><g><rect class="ch-subdomain-bg" width="10" height="10" x="468" y="0" rx="2" ry="2" style="fill: rgb(254, 226, 199);"></rect></g><g><rect class="ch-subdomain-bg" width="10" height="10" x="468" y="12" rx="2" ry="2" style="fill: rgb(253, 216, 179);"></rect></g><g><rect class="ch-subdomain-bg" width="10" height="10" x="468" y="24" rx="2" ry="2" style="fill: rgb(254, 228, 201);"></rect></g><g><rect class="ch-subdomain-bg" width="10" height="10" x="468" y="36" rx="2" ry="2" style="fill: rgb(254, 229, 204);"></rect></g><g><rect class="ch-subdomain-bg" width="10" height="10" x="468" y="48" rx="2" ry="2" style="fill: rgb(253, 206, 160);"></rect></g><g><rect class="ch-subdomain-bg" width="10" height="10" x="468" y="60" rx="2" ry="2" style="fill: rgb(254, 228, 201);"></rect></g><g><rect class="ch-subdomain-bg" width="10" height="10" x="468" y="72" rx="2" ry="2" style="fill: rgb(255, 240, 225);"></rect></g><g><rect class="ch-subdomain-bg" width="10" height="10" x="480" y="0" rx="2" ry="2" style="fill: rgb(254, 224, 193);"></rect></g><g><rect class="ch-subdomain-bg" width="10" height="10" x="480" y="12" rx="2" ry="2" style="fill: rgb(254, 222, 191);"></rect></g><g><rect class="ch-subdomain-bg" width="10" height="10" x="480" y="24" rx="2" ry="2" style="fill: rgb(254, 224, 193);"></rect></g><g><rect class="ch-subdomain-bg" width="10" height="10" x="480" y="36" rx="2" ry="2" style="fill: rgb(255, 239, 223);"></rect></g><g><rect class="ch-subdomain-bg" width="10" height="10" x="480" y="48" rx="2" ry="2" style="fill: rgb(253, 202, 153);"></rect></g><g><rect class="ch-subdomain-bg" width="10" height="10" x="480" y="60" rx="2" ry="2" style="fill: rgb(254, 225, 196);"></rect></g><g><rect class="ch-subdomain-bg" width="10" height="10" x="480" y="72" rx="2" ry="2" style="fill: rgb(255, 240, 225);"></rect></g><g><rect class="ch-subdomain-bg" width="10" height="10" x="492" y="0" rx="2" ry="2" style="fill: rgb(255, 241, 227);"></rect></g><g><rect class="ch-subdomain-bg" width="10" height="10" x="492" y="12" rx="2" ry="2" style="fill: rgb(254, 236, 217);"></rect></g><g><rect class="ch-subdomain-bg" width="10" height="10" x="492" y="24" rx="2" ry="2" style="fill: rgb(254, 219, 185);"></rect></g><g><rect class="ch-subdomain-bg" width="10" height="10" x="492" y="36" rx="2" ry="2" style="fill: rgb(253, 204, 157);"></rect></g><g><rect class="ch-subdomain-bg" width="10" height="10" x="492" y="48" rx="2" ry="2" style="fill: rgb(253, 192, 136);"></rect></g><g><rect class="ch-subdomain-bg" width="10" height="10" x="492" y="60" rx="2" ry="2" style="fill: rgb(255, 239, 223);"></rect></g><g><rect class="ch-subdomain-bg" width="10" height="10" x="492" y="72" rx="2" ry="2" style="fill: rgb(255, 245, 235);"></rect></g><g><rect class="ch-subdomain-bg" width="10" height="10" x="504" y="0" rx="2" ry="2" style="fill: rgb(255, 241, 227);"></rect></g><g><rect class="ch-subdomain-bg" width="10" height="10" x="504" y="12" rx="2" ry="2" style="fill: rgb(253, 218, 182);"></rect></g><g><rect class="ch-subdomain-bg" width="10" height="10" x="504" y="24" rx="2" ry="2" style="fill: rgb(255, 243, 231);"></rect></g><g><rect class="ch-subdomain-bg" width="10" height="10" x="504" y="36" rx="2" ry="2" style="fill: rgb(254, 231, 208);"></rect></g><g><rect class="ch-subdomain-bg" width="10" height="10" x="504" y="48" rx="2" ry="2" style="fill: rgb(253, 176, 112);"></rect></g><g><rect class="ch-subdomain-bg" width="10" height="10" x="504" y="60" rx="2" ry="2" style="fill: rgb(254, 236, 217);"></rect></g><g><rect class="ch-subdomain-bg" width="10" height="10" x="504" y="72" rx="2" ry="2" style="fill: rgb(255, 245, 235);"></rect></g><g><rect class="ch-subdomain-bg" width="10" height="10" x="516" y="0" rx="2" ry="2" style="fill: rgb(254, 232, 211);"></rect></g><g><rect class="ch-subdomain-bg" width="10" height="10" x="516" y="12" rx="2" ry="2" style="fill: rgb(253, 216, 179);"></rect></g><g><rect class="ch-subdomain-bg" width="10" height="10" x="516" y="24" rx="2" ry="2" style="fill: rgb(255, 239, 223);"></rect></g><g><rect class="ch-subdomain-bg" width="10" height="10" x="516" y="36" rx="2" ry="2" style="fill: rgb(254, 229, 204);"></rect></g><g><rect class="ch-subdomain-bg" width="10" height="10" x="516" y="48" rx="2" ry="2" style="fill: rgb(254, 231, 208);"></rect></g><g><rect class="ch-subdomain-bg" width="10" height="10" x="516" y="60" rx="2" ry="2" style="fill: rgb(255, 245, 235);"></rect></g><g><rect class="ch-subdomain-bg" width="10" height="10" x="516" y="72" rx="2" ry="2" style="fill: rgb(253, 204, 157);"></rect></g><g><rect class="ch-subdomain-bg" width="10" height="10" x="528" y="0" rx="2" ry="2" style="fill: rgb(255, 240, 225);"></rect></g><g><rect class="ch-subdomain-bg" width="10" height="10" x="528" y="12" rx="2" ry="2" style="fill: rgb(254, 224, 193);"></rect></g><g><rect class="ch-subdomain-bg" width="10" height="10" x="528" y="24" rx="2" ry="2" style="fill: rgb(254, 219, 185);"></rect></g><g><rect class="ch-subdomain-bg" width="10" height="10" x="528" y="36" rx="2" ry="2" style="fill: rgb(254, 224, 193);"></rect></g><g><rect class="ch-subdomain-bg" width="10" height="10" x="528" y="48" rx="2" ry="2" style="fill: rgb(254, 219, 185);"></rect></g><g><rect class="ch-subdomain-bg" width="10" height="10" x="528" y="60" rx="2" ry="2" style="fill: rgb(255, 240, 225);"></rect></g><g><rect class="ch-subdomain-bg" width="10" height="10" x="528" y="72" rx="2" ry="2" style="fill: rgb(255, 245, 235);"></rect></g><g><rect class="ch-subdomain-bg" width="10" height="10" x="540" y="0" rx="2" ry="2" style="fill: rgb(255, 245, 235);"></rect></g><g><rect class="ch-subdomain-bg" width="10" height="10" x="540" y="12" rx="2" ry="2" style="fill: rgb(255, 245, 235);"></rect></g><g><rect class="ch-subdomain-bg" width="10" height="10" x="540" y="24" rx="2" ry="2" style="fill: rgb(255, 245, 235);"></rect></g><g><rect class="ch-subdomain-bg" width="10" height="10" x="540" y="36" rx="2" ry="2" style="fill: rgb(255, 245, 235);"></rect></g><g><rect class="ch-subdomain-bg" width="10" height="10" x="540" y="48" rx="2" ry="2" style="fill: rgb(255, 245, 235);"></rect></g><g><rect class="ch-subdomain-bg" width="10" height="10" x="540" y="60" rx="2" ry="2" style="fill: rgb(255, 245, 235);"></rect></g><g><rect class="ch-subdomain-bg" width="10" height="10" x="540" y="72" rx="2" ry="2" style="fill: rgb(255, 245, 235);"></rect></g><g><rect class="ch-subdomain-bg" width="10" height="10" x="552" y="0" rx="2" ry="2" style="fill: rgb(255, 245, 235);"></rect></g><g><rect class="ch-subdomain-bg" width="10" height="10" x="552" y="12" rx="2" ry="2" style="fill: rgb(255, 245, 235);"></rect></g><g><rect class="ch-subdomain-bg" width="10" height="10" x="552" y="24" rx="2" ry="2" style="fill: rgb(255, 245, 235);"></rect></g><g><rect class="ch-subdomain-bg" width="10" height="10" x="552" y="36" rx="2" ry="2" style="fill: rgb(255, 245, 235);"></rect></g><g><rect class="ch-subdomain-bg" width="10" height="10" x="552" y="48" rx="2" ry="2" style="fill: rgb(255, 245, 235);"></rect></g><g><rect class="ch-subdomain-bg" width="10" height="10" x="552" y="60" rx="2" ry="2" style="fill: rgb(255, 245, 235);"></rect></g><g><rect class="ch-subdomain-bg" width="10" height="10" x="552" y="72" rx="2" ry="2" style="fill: rgb(255, 245, 235);"></rect></g><g><rect class="ch-subdomain-bg" width="10" height="10" x="564" y="0" rx="2" ry="2" style="fill: rgb(255, 245, 235);"></rect></g><g><rect class="ch-subdomain-bg" width="10" height="10" x="564" y="12" rx="2" ry="2" style="fill: rgb(255, 245, 235);"></rect></g><g><rect class="ch-subdomain-bg" width="10" height="10" x="564" y="24" rx="2" ry="2" style="fill: rgb(255, 245, 235);"></rect></g><g><rect class="ch-subdomain-bg" width="10" height="10" x="564" y="36" rx="2" ry="2" style="fill: rgb(255, 245, 235);"></rect></g><g><rect class="ch-subdomain-bg" width="10" height="10" x="564" y="48" rx="2" ry="2" style="fill: rgb(255, 245, 235);"></rect></g><g><rect class="ch-subdomain-bg" width="10" height="10" x="564" y="60" rx="2" ry="2" style="fill: rgb(255, 245, 235);"></rect></g><g><rect class="ch-subdomain-bg" width="10" height="10" x="564" y="72" rx="2" ry="2" style="fill: rgb(255, 245, 235);"></rect></g><g><rect class="ch-subdomain-bg" width="10" height="10" x="576" y="0" rx="2" ry="2" style="fill: rgb(255, 245, 235);"></rect></g><g><rect class="ch-subdomain-bg" width="10" height="10" x="576" y="12" rx="2" ry="2" style="fill: rgb(255, 245, 235);"></rect></g><g><rect class="ch-subdomain-bg" width="10" height="10" x="576" y="24" rx="2" ry="2" style="fill: rgb(255, 245, 235);"></rect></g><g><rect class="ch-subdomain-bg" width="10" height="10" x="576" y="36" rx="2" ry="2" style="fill: rgb(255, 245, 235);"></rect></g><g><rect class="ch-subdomain-bg" width="10" height="10" x="576" y="48" rx="2" ry="2" style="fill: rgb(255, 245, 235);"></rect></g><g><rect class="ch-subdomain-bg" width="10" height="10" x="576" y="60" rx="2" ry="2" style="fill: rgb(255, 245, 235);"></rect></g><g><rect class="ch-subdomain-bg" width="10" height="10" x="576" y="72" rx="2" ry="2" style="fill: rgb(255, 245, 235);"></rect></g><g><rect class="ch-subdomain-bg" width="10" height="10" x="588" y="0" rx="2" ry="2" style="fill: rgb(255, 245, 235);"></rect></g><g><rect class="ch-subdomain-bg" width="10" height="10" x="588" y="12" rx="2" ry="2" style="fill: rgb(255, 245, 235);"></rect></g><g><rect class="ch-subdomain-bg" width="10" height="10" x="588" y="24" rx="2" ry="2" style="fill: rgb(255, 245, 235);"></rect></g><g><rect class="ch-subdomain-bg" width="10" height="10" x="588" y="36" rx="2" ry="2" style="fill: rgb(255, 245, 235);"></rect></g><g><rect class="ch-subdomain-bg" width="10" height="10" x="588" y="48" rx="2" ry="2" style="fill: rgb(255, 245, 235);"></rect></g><g><rect class="ch-subdomain-bg" width="10" height="10" x="588" y="60" rx="2" ry="2" style="fill: rgb(255, 245, 235);"></rect></g><g><rect class="ch-subdomain-bg" width="10" height="10" x="588" y="72" rx="2" ry="2" style="fill: rgb(255, 245, 235);"></rect></g><g><rect class="ch-subdomain-bg" width="10" height="10" x="600" y="0" rx="2" ry="2" style="fill: rgb(255, 245, 235);"></rect></g><g><rect class="ch-subdomain-bg" width="10" height="10" x="600" y="12" rx="2" ry="2" style="fill: rgb(255, 245, 235);"></rect></g><g><rect class="ch-subdomain-bg" width="10" height="10" x="600" y="24" rx="2" ry="2" style="fill: rgb(255, 245, 235);"></rect></g><g><rect class="ch-subdomain-bg" width="10" height="10" x="600" y="36" rx="2" ry="2" style="fill: rgb(255, 245, 235);"></rect></g><g><rect class="ch-subdomain-bg" width="10" height="10" x="600" y="48" rx="2" ry="2" style="fill: rgb(255, 245, 235);"></rect></g><g><rect class="ch-subdomain-bg" width="10" height="10" x="600" y="60" rx="2" ry="2" style="fill: rgb(255, 245, 235);"></rect></g><g><rect class="ch-subdomain-bg" width="10" height="10" x="600" y="72" rx="2" ry="2" style="fill: rgb(255, 245, 235);"></rect></g><g><rect class="ch-subdomain-bg" width="10" height="10" x="612" y="0" rx="2" ry="2" style="fill: rgb(255, 245, 235);"></rect></g><g><rect class="ch-subdomain-bg" width="10" height="10" x="612" y="12" rx="2" ry="2" style="fill: rgb(255, 245, 235);"></rect></g><g><rect class="ch-subdomain-bg" width="10" height="10" x="612" y="24" rx="2" ry="2" style="fill: rgb(255, 245, 235);"></rect></g><g><rect class="ch-subdomain-bg" width="10" height="10" x="612" y="36" rx="2" ry="2" style="fill: rgb(255, 245, 235);"></rect></g><g><rect class="ch-subdomain-bg" width="10" height="10" x="612" y="48" rx="2" ry="2" style="fill: rgb(255, 245, 235);"></rect></g><g><rect class="ch-subdomain-bg" width="10" height="10" x="612" y="60" rx="2" ry="2" style="fill: rgb(255, 245, 235);"></rect></g><g><rect class="ch-subdomain-bg" width="10" height="10" x="612" y="72" rx="2" ry="2" style="fill: rgb(255, 245, 235);"></rect></g><g><rect class="ch-subdomain-bg" width="10" height="10" x="624" y="0" rx="2" ry="2" style="fill: rgb(255, 245, 235);"></rect></g><g><rect class="ch-subdomain-bg" width="10" height="10" x="624" y="12" rx="2" ry="2" style="fill: rgb(255, 245, 235);"></rect></g><g><rect class="ch-subdomain-bg" width="10" height="10" x="624" y="24" rx="2" ry="2" style="fill: rgb(255, 245, 235);"></rect></g><g><rect class="ch-subdomain-bg" width="10" height="10" x="624" y="36" rx="2" ry="2" style="fill: rgb(255, 245, 235);"></rect></g></svg><text class="ch-domain-text" x="317" y="94.5" text-anchor="middle" dominant-baseline="middle">2025</text></svg></svg></svg></svg>