<svg data-theme="dark" class="ch-container" x="0" y="0" width="634" height="107"><svg class="ch-domain-container" x="0" y="0"><svg class="ch-domain-container-animation-wrapper" width="634" height="107"><svg x="0" y="0" width="634" height="107" class="ch-domain y_2025"><rect width="634" height="107" class="ch-domain-bg"></rect><svg x="0" y="0" class="ch-subdomain-container"><g><rect class="ch-subdomain-bg" width="10" height="10" x="0" y="36" rx="2" ry="2" style="fill: rgb(217, 77, 5);"></rect></g><g><rect class="ch-subdomain-bg" width="10" height="10" x="0" y="48" rx="2" ry="2" style="fill: rgb(255, 245, 235);"></rect></g><g><rect class="ch-subdomain-bg" width="10" height="10" x="0" y="60" rx="2" ry="2" style="fill: rgb(255, 245, 235);"></rect></g><g><rect class="ch-subdomain-bg" width="10" height="10" x="0" y="72" rx="2" ry="2" style="fill: rgb(255, 245, 235);"></rect></g><g><rect class="ch-subdomain-bg" width="10" height="10" x="12" y="0" rx="2" ry="2" style="fill: rgb(255, 245, 235);"></rect></g><g><rect class="ch-subdomain-bg" width="10" height="10" x="12" y="12" rx="2" ry="2" style="fill: rgb(255, 245, 235);"></rect></g><g><rect class="ch-subdomain-bg" width="10" height="10" x="12" y="24" rx="2" ry="2" style="fill: rgb(255, 245, 235);"></rect></g><g><rect class="ch-subdomain-bg" width="10" height="10" x="12" y="36" rx="2" ry="2" style="fill: rgb(255, 245, 235);"></rect></g><g><rect class="ch-subdomain-bg" width="10" height="10" x="12" y="48" rx="2" ry="2" style="fill: rgb(255, 245, 235);"></rect></g><g><rect class="ch-subdomain-bg" width="10" height="10" x="12" y="60" rx="2" ry="2" style="fill: rgb(255, 245, 235);"></rect></g><g><rect class="ch-subdomain-bg" width="10" height="10" x="12" y="72" rx="2" ry="2" style="fill: rgb(255, 245, 235);"></rect></g><g><rect class="ch-subdomain-bg" width="10" height="10" x="24" y="0" rx="2" ry="2" style="fill: rgb(255, 245, 235);"></rect></g><g><rect class="ch-subdomain-bg" width="10" height="10" x="24" y="12" rx="2" ry="2" style="fill: rgb(255, 245, 235);"></rect></g><g><rect class="ch-subdomain-bg" width="10" height="10" x="24" y="24" rx="2" ry="2" style="fill: rgb(255, 245, 235);"></rect></g><g><rect class="ch-subdomain-bg" width="10" height="10" x="24" y="36" rx="2" ry="2" style="fill: rgb(255, 245, 235);"></rect></g><g><rect class="ch-subdomain-bg" width="10" height="10" x="24" y="48" rx="2" ry="2" style="fill: rgb(255, 245, 235);"></rect></g><g><rect class="ch-subdomain-bg" width="10" height="10" x="24" y="60" rx="2" ry="2" style="fill: rgb(255, 245, 235);"></rect></g><g><rect class="ch-subdomain-bg" width="10" height="10" x="24" y="72" rx="2" ry="2" style="fill: rgb(255, 245, 235);"></rect></g><g><rect class="ch-subdomain-bg" width="10" height="10" x="36" y="0" rx="2" ry="2" style="fill: rgb(255, 245, 235);"></rect></g><g><rect class="ch-subdomain-bg" width="10" height="10" x="36" y="12" rx="2" ry="2" style="fill: rgb(255, 245, 235);"></rect></g><g><rect class="ch-subdomain-bg" width="10" height="10" x="36" y="24" rx="2" ry="2" style="fill: rgb(255, 245, 235);"></rect></g><g><rect class="ch-subdomain-bg" width="10" height="10" x="36" y="36" rx="2" ry="2" style="fill: rgb(255, 245, 235);"></rect></g><g><rect class="ch-subdomain-bg" width="10" height="10" x="36" y="48" rx="2" ry="2" style="fill: rgb(255, 245, 235);"></rect></g><g><rect class="ch-subdomain-bg" width="10" height="10" x="36" y="60" rx="2" ry="2" style="fill: rgb(255, 245, 235);"></rect></g><g><rect class="ch-subdomain-bg" width="10" height="10" x="36" y="72" rx="2" ry="2" style="fill: rgb(255, 245, 235);"></rect></g><g><rect class="ch-subdomain-bg" width="10" height="10" x="48" y="0" rx="2" ry="2" style="fill: rgb(255, 245, 235);"></rect></g><g><rect class="ch-subdomain-bg" width="10" height="10" x="48" y="12" rx="2" ry="2" style="fill: rgb(255, 245, 235);"></rect></g><g><rect class="ch-subdomain-bg" width="10" height="10" x="48" y="24" rx="2" ry="2" style="fill: rgb(255, 245, 235);"></rect></g><g><rect class="ch-subdomain-bg" width="10" height="10" x="48" y="36" rx="2" ry="2" style="fill: rgb(255, 245, 235);"></rect></g><g><rect class="ch-subdomain-bg" width="10" height="10" x="48" y="48" rx="2" ry="2" style="fill: rgb(255, 245, 235);"></rect></g><g><rect class="ch-subdomain-bg" width="10" height="10" x="48" y="60" rx="2" ry="2" style="fill: rgb(255, 245, 235);"></rect></g><g><rect class="ch-subdomain-bg" width="10" height="10" x="48" y="72" rx="2" ry="2" style="fill: rgb(255, 245, 235);"></rect></g><g><rect class="ch-subdomain-bg" width="10" height="10" x="60" y="0" rx="2" ry="2" style="fill: rgb(255, 245, 235);"></rect></g><g><rect class="ch-subdomain-bg" width="10" height="10" x="60" y="12" rx="2" ry="2" style="fill: rgb(255, 245, 235);"></rect></g><g><rect class="ch-subdomain-bg" width="10" height="10" x="60" y="24" rx="2" ry="2" style="fill: rgb(255, 245, 235);"></rect></g><g><rect class="ch-subdomain-bg" width="10" height="10" x="60" y="36" rx="2" ry="2" style="fill: rgb(255, 245, 235);"></rect></g><g><rect class="ch-subdomain-bg" width="10" height="10" x="60" y="48" rx="2" ry="2" style="fill: rgb(255, 245, 235);"></rect></g><g><rect class="ch-subdomain-bg" width="10" height="10" x="60" y="60" rx="2" ry="2" style="fill: rgb(255, 245, 235);"></rect></g><g><rect class="ch-subdomain-bg" width="10" height="10" x="60" y="72" rx="2" ry="2" style="fill: rgb(255, 245, 235);"></rect></g><g><rect class="ch-subdomain-bg" width="10" height="10" x="72" y="0" rx="2" ry="2" style="fill: rgb(255, 245, 235);"></rect></g><g><rect class="ch-subdomain-bg" width="10" height="10" x="72" y="12" rx="2" ry="2" style="fill: rgb(255, 245, 235);"></rect></g><g><rect class="ch-subdomain-bg" width="10" height="10" x="72" y="24" rx="2" ry="2" style="fill: rgb(255, 245, 235);"></rect></g><g><rect class="ch-subdomain-bg" width="10" height="10" x="72" y="36" rx="2" ry="2" style="fill: rgb(255, 245, 235);"></rect></g><g><rect class="ch-subdomain-bg" width="10" height="10" x="72" y="48" rx="2" ry="2" style="fill: rgb(255, 245, 235);"></rect></g><g><rect class="ch-subdomain-bg" width="10" height="10" x="72" y="60" rx="2" ry="2" style="fill: rgb(255, 245, 235);"></rect></g><g><rect class="ch-subdomain-bg" width="10" height="10" x="72" y="72" rx="2" ry="2" style="fill: rgb(255, 245, 235);"></rect></g><g><rect class="ch-subdomain-bg" width="10" height="10" x="84" y="0" rx="2" ry="2" style="fill: rgb(255, 245, 235);"></rect></g><g><rect class="ch-subdomain-bg" width="10" height="10" x="84" y="12" rx="2" ry="2" style="fill: rgb(255, 245, 235);"></rect></g><g><rect class="ch-subdomain-bg" width="10" height="10" x="84" y="24" rx="2" ry="2" style="fill: rgb(255, 245, 235);"></rect></g><g><rect class="ch-subdomain-bg" width="10" height="10" x="84" y="36" rx="2" ry="2" style="fill: rgb(255, 245, 235);"></rect></g><g><rect class="ch-subdomain-bg" width="10" height="10" x="84" y="48" rx="2" ry="2" style="fill: rgb(255, 245, 235);"></rect></g><g><rect class="ch-subdomain-bg" width="10" height="10" x="84" y="60" rx="2" ry="2" style="fill: rgb(255, 245, 235);"></rect></g><g><rect class="ch-subdomain-bg" width="10" height="10" x="84" y="72" rx="2" ry="2" style="fill: rgb(255, 245, 235);"></rect></g><g><rect class="ch-subdomain-bg" width="10" height="10" x="96" y="0" rx="2" ry="2" style="fill: rgb(255, 245, 235);"></rect></g><g><rect class="ch-subdomain-bg" width="10" height="10" x="96" y="12" rx="2" ry="2" style="fill: rgb(255, 245, 235);"></rect></g><g><rect class="ch-subdomain-bg" width="10" height="10" x="96" y="24" rx="2" ry="2" style="fill: rgb(255, 245, 235);"></rect></g><g><rect class="ch-subdomain-bg" width="10" height="10" x="96" y="36" rx="2" ry="2" style="fill: rgb(255, 245, 235);"></rect></g><g><rect class="ch-subdomain-bg" width="10" height="10" x="96" y="48" rx="2" ry="2" style="fill: rgb(255, 245, 235);"></rect></g><g><rect class="ch-subdomain-bg" width="10" height="10" x="96" y="60" rx="2" ry="2" style="fill: rgb(255, 245, 235);"></rect></g><g><rect class="ch-subdomain-bg" width="10" height="10" x="96" y="72" rx="2" ry="2" style="fill: rgb(255, 245, 235);"></rect></g><g><rect class="ch-subdomain-bg" width="10" height="10" x="108" y="0" rx="2" ry="2" style="fill: rgb(255, 245, 235);"></rect></g><g><rect class="ch-subdomain-bg" width="10" height="10" x="108" y="12" rx="2" ry="2" style="fill: rgb(255, 245, 235);"></rect></g><g><rect class="ch-subdomain-bg" width="10" height="10" x="108" y="24" rx="2" ry="2" style="fill: rgb(255, 245, 235);"></rect></g><g><rect class="ch-subdomain-bg" width="10" height="10" x="108" y="36" rx="2" ry="2" style="fill: rgb(255, 245, 235);"></rect></g><g><rect class="ch-subdomain-bg" width="10" height="10" x="108" y="48" rx="2" ry="2" style="fill: rgb(255, 245, 235);"></rect></g><g><rect class="ch-subdomain-bg" width="10" height="10" x="108" y="60" rx="2" ry="2" style="fill: rgb(255, 245, 235);"></rect></g><g><rect class="ch-subdomain-bg" width="10" height="10" x="108" y="72" rx="2" ry="2" style="fill: rgb(255, 245, 235);"></rect></g><g><rect class="ch-subdomain-bg" width="10" height="10" x="120" y="0" rx="2" ry="2" style="fill: rgb(255, 245, 235);"></rect></g><g><rect class="ch-subdomain-bg" width="10" height="10" x="120" y="12" rx="2" ry="2" style="fill: rgb(255, 245, 235);"></rect></g><g><rect class="ch-subdomain-bg" width="10" height="10" x="120" y="24" rx="2" ry="2" style="fill: rgb(255, 245, 235);"></rect></g><g><rect class="ch-subdomain-bg" width="10" height="10" x="120" y="36" rx="2" ry="2" style="fill: rgb(255, 245, 235);"></rect></g><g><rect class="ch-subdomain-bg" width="10" height="10" x="120" y="48" rx="2" ry="2" style="fill: rgb(255, 245, 235);"></rect></g><g><rect class="ch-subdomain-bg" width="10" height="10" x="120" y="60" rx="2" ry="2" style="fill: rgb(255, 245, 235);"></rect></g><g><rect class="ch-subdomain-bg" width="10" height="10" x="120" y="72" rx="2" ry="2" style="fill: rgb(255, 245, 235);"></rect></g><g><rect class="ch-subdomain-bg" width="10" height="10" x="132" y="0" rx="2" ry="2" style="fill: rgb(255, 245, 235);"></rect></g><g><rect class="ch-subdomain-bg" width="10" height="10" x="132" y="12" rx="2" ry="2" style="fill: rgb(255, 245, 235);"></rect></g><g><rect class="ch-subdomain-bg" width="10" height="10" x="132" y="24" rx="2" ry="2" style="fill: rgb(255, 245, 235);"></rect></g><g><rect class="ch-subdomain-bg" width="10" height="10" x="132" y="36" rx="2" ry="2" style="fill: rgb(255, 245, 235);"></rect></g><g><rect class="ch-subdomain-bg" width="10" height="10" x="132" y="48" rx="2" ry="2" style="fill: rgb(255, 245, 235);"></rect></g><g><rect class="ch-subdomain-bg" width="10" height="10" x="132" y="60" rx="2" ry="2" style="fill: rgb(255, 245, 235);"></rect></g><g><rect class="ch-subdomain-bg" width="10" height="10" x="132" y="72" rx="2" ry="2" style="fill: rgb(255, 245, 235);"></rect></g><g><rect class="ch-subdomain-bg" width="10" height="10" x="144" y="0" rx="2" ry="2" style="fill: rgb(255, 245, 235);"></rect></g><g><rect class="ch-subdomain-bg" width="10" height="10" x="144" y="12" rx="2" ry="2" style="fill: rgb(255, 245, 235);"></rect></g><g><rect class="ch-subdomain-bg" width="10" height="10" x="144" y="24" rx="2" ry="2" style="fill: rgb(255, 245, 235);"></rect></g><g><rect class="ch-subdomain-bg" width="10" height="10" x="144" y="36" rx="2" ry="2" style="fill: rgb(255, 245, 235);"></rect></g><g><rect class="ch-subdomain-bg" width="10" height="10" x="144" y="48" rx="2" ry="2" style="fill: rgb(255, 245, 235);"></rect></g><g><rect class="ch-subdomain-bg" width="10" height="10" x="144" y="60" rx="2" ry="2" style="fill: rgb(255, 245, 235);"></rect></g><g><rect class="ch-subdomain-bg" width="10" height="10" x="144" y="72" rx="2" ry="2" style="fill: rgb(255, 245, 235);"></rect></g><g><rect class="ch-subdomain-bg" width="10" height="10" x="156" y="0" rx="2" ry="2" style="fill: rgb(255, 245, 235);"></rect></g><g><rect class="ch-subdomain-bg" width="10" height="10" x="156" y="12" rx="2" ry="2" style="fill: rgb(209, 72, 4);"></rect></g><g><rect class="ch-subdomain-bg" width="10" height="10" x="156" y="24" rx="2" ry="2" style="fill: rgb(190, 63, 2);"></rect></g><g><rect class="ch-subdomain-bg" width="10" height="10" x="156" y="36" rx="2" ry="2" style="fill: rgb(242, 111, 28);"></rect></g><g><rect class="ch-subdomain-bg" width="10" height="10" x="156" y="48" rx="2" ry="2" style="fill: rgb(234, 96, 16);"></rect></g><g><rect class="ch-subdomain-bg" width="10" height="10" x="156" y="60" rx="2" ry="2" style="fill: rgb(228, 89, 11);"></rect></g><g><rect class="ch-subdomain-bg" width="10" height="10" x="156" y="72" rx="2" ry="2" style="fill: rgb(222, 82, 7);"></rect></g><g><rect class="ch-subdomain-bg" width="10" height="10" x="168" y="0" rx="2" ry="2" style="fill: rgb(252, 153, 77);"></rect></g><g><rect class="ch-subdomain-bg" width="10" height="10" x="168" y="12" rx="2" ry="2" style="fill: rgb(175, 57, 3);"></rect></g><g><rect class="ch-subdomain-bg" width="10" height="10" x="168" y="24" rx="2" ry="2" style="fill: rgb(244, 117, 34);"></rect></g><g><rect class="ch-subdomain-bg" width="10" height="10" x="168" y="36" rx="2" ry="2" style="fill: rgb(253, 167, 98);"></rect></g><g><rect class="ch-subdomain-bg" width="10" height="10" x="168" y="48" rx="2" ry="2" style="fill: rgb(239, 106, 23);"></rect></g><g><rect class="ch-subdomain-bg" width="10" height="10" x="168" y="60" rx="2" ry="2" style="fill: rgb(245, 119, 35);"></rect></g><g><rect class="ch-subdomain-bg" width="10" height="10" x="168" y="72" rx="2" ry="2" style="fill: rgb(254, 231, 207);"></rect></g><g><rect class="ch-subdomain-bg" width="10" height="10" x="180" y="0" rx="2" ry="2" style="fill: rgb(254, 236, 218);"></rect></g><g><rect class="ch-subdomain-bg" width="10" height="10" x="180" y="12" rx="2" ry="2" style="fill: rgb(244, 116, 33);"></rect></g><g><rect class="ch-subdomain-bg" width="10" height="10" x="180" y="24" rx="2" ry="2" style="fill: rgb(248, 128, 46);"></rect></g><g><rect class="ch-subdomain-bg" width="10" height="10" x="180" y="36" rx="2" ry="2" style="fill: rgb(247, 124, 41);"></rect></g><g><rect class="ch-subdomain-bg" width="10" height="10" x="180" y="48" rx="2" ry="2" style="fill: rgb(240, 108, 25);"></rect></g><g><rect class="ch-subdomain-bg" width="10" height="10" x="180" y="60" rx="2" ry="2" style="fill: rgb(248, 127, 45);"></rect></g><g><rect class="ch-subdomain-bg" width="10" height="10" x="180" y="72" rx="2" ry="2" style="fill: rgb(253, 179, 115);"></rect></g><g><rect class="ch-subdomain-bg" width="10" height="10" x="192" y="0" rx="2" ry="2" style="fill: rgb(253, 180, 118);"></rect></g><g><rect class="ch-subdomain-bg" width="10" height="10" x="192" y="12" rx="2" ry="2" style="fill: rgb(137, 43, 4);"></rect></g><g><rect class="ch-subdomain-bg" width="10" height="10" x="192" y="24" rx="2" ry="2" style="fill: rgb(237, 102, 20);"></rect></g><g><rect class="ch-subdomain-bg" width="10" height="10" x="192" y="36" rx="2" ry="2" style="fill: rgb(198, 66, 3);"></rect></g><g><rect class="ch-subdomain-bg" width="10" height="10" x="192" y="48" rx="2" ry="2" style="fill: rgb(230, 91, 12);"></rect></g><g><rect class="ch-subdomain-bg" width="10" height="10" x="192" y="60" rx="2" ry="2" style="fill: rgb(237, 102, 20);"></rect></g><g><rect class="ch-subdomain-bg" width="10" height="10" x="192" y="72" rx="2" ry="2" style="fill: rgb(253, 173, 107);"></rect></g><g><rect class="ch-subdomain-bg" width="10" height="10" x="204" y="0" rx="2" ry="2" style="fill: rgb(253, 167, 97);"></rect></g><g><rect class="ch-subdomain-bg" width="10" height="10" x="204" y="12" rx="2" ry="2" style="fill: rgb(230, 91, 12);"></rect></g><g><rect class="ch-subdomain-bg" width="10" height="10" x="204" y="24" rx="2" ry="2" style="fill: rgb(247, 126, 43);"></rect></g><g><rect class="ch-subdomain-bg" width="10" height="10" x="204" y="36" rx="2" ry="2" style="fill: rgb(234, 97, 16);"></rect></g><g><rect class="ch-subdomain-bg" width="10" height="10" x="204" y="48" rx="2" ry="2" style="fill: rgb(191, 63, 2);"></rect></g><g><rect class="ch-subdomain-bg" width="10" height="10" x="204" y="60" rx="2" ry="2" style="fill: rgb(241, 110, 27);"></rect></g><g><rect class="ch-subdomain-bg" width="10" height="10" x="204" y="72" rx="2" ry="2" style="fill: rgb(254, 228, 203);"></rect></g><g><rect class="ch-subdomain-bg" width="10" height="10" x="216" y="0" rx="2" ry="2" style="fill: rgb(253, 166, 96);"></rect></g><g><rect class="ch-subdomain-bg" width="10" height="10" x="216" y="12" rx="2" ry="2" style="fill: rgb(245, 119, 36);"></rect></g><g><rect class="ch-subdomain-bg" width="10" height="10" x="216" y="24" rx="2" ry="2" style="fill: rgb(253, 188, 129);"></rect></g><g><rect class="ch-subdomain-bg" width="10" height="10" x="216" y="36" rx="2" ry="2" style="fill: rgb(152, 48, 3);"></rect></g><g><rect class="ch-subdomain-bg" width="10" height="10" x="216" y="48" rx="2" ry="2" style="fill: rgb(236, 100, 19);"></rect></g><g><rect class="ch-subdomain-bg" width="10" height="10" x="216" y="60" rx="2" ry="2" style="fill: rgb(179, 59, 2);"></rect></g><g><rect class="ch-subdomain-bg" width="10" height="10" x="216" y="72" rx="2" ry="2" style="fill: rgb(255, 245, 235);"></rect></g><g><rect class="ch-subdomain-bg" width="10" height="10" x="228" y="0" rx="2" ry="2" style="fill: rgb(253, 211, 170);"></rect></g><g><rect class="ch-subdomain-bg" width="10" height="10" x="228" y="12" rx="2" ry="2" style="fill: rgb(241, 109, 26);"></rect></g><g><rect class="ch-subdomain-bg" width="10" height="10" x="228" y="24" rx="2" ry="2" style="fill: rgb(241, 109, 26);"></rect></g><g><rect class="ch-subdomain-bg" width="10" height="10" x="228" y="36" rx="2" ry="2" style="fill: rgb(173, 56, 3);"></rect></g><g><rect class="ch-subdomain-bg" width="10" height="10" x="228" y="48" rx="2" ry="2" style="fill: rgb(182, 60, 2);"></rect></g><g><rect class="ch-subdomain-bg" width="10" height="10" x="228" y="60" rx="2" ry="2" style="fill: rgb(249, 130, 48);"></rect></g><g><rect class="ch-subdomain-bg" width="10" height="10" x="228" y="72" rx="2" ry="2" style="fill: rgb(127, 39, 4);"></rect></g><g><rect class="ch-subdomain-bg" width="10" height="10" x="240" y="0" rx="2" ry="2" style="fill: rgb(250, 137, 56);"></rect></g><g><rect class="ch-subdomain-bg" width="10" height="10" x="240" y="12" rx="2" ry="2" style="fill: rgb(243, 114, 31);"></rect></g><g><rect class="ch-subdomain-bg" width="10" height="10" x="240" y="24" rx="2" ry="2" style="fill: rgb(255, 245, 235);"></rect></g><g><rect class="ch-subdomain-bg" width="10" height="10" x="240" y="36" rx="2" ry="2" style="fill: rgb(255, 245, 235);"></rect></g><g><rect class="ch-subdomain-bg" width="10" height="10" x="240" y="48" rx="2" ry="2" style="fill: rgb(247, 124, 41);"></rect></g><g><rect class="ch-subdomain-bg" width="10" height="10" x="240" y="60" rx="2" ry="2" style="fill: rgb(237, 102, 20);"></rect></g><g><rect class="ch-subdomain-bg" width="10" height="10" x="240" y="72" rx="2" ry="2" style="fill: rgb(249, 130, 48);"></rect></g><g><rect class="ch-subdomain-bg" width="10" height="10" x="252" y="0" rx="2" ry="2" style="fill: rgb(253, 211, 169);"></rect></g><g><rect class="ch-subdomain-bg" width="10" height="10" x="252" y="12" rx="2" ry="2" style="fill: rgb(237, 102, 20);"></rect></g><g><rect class="ch-subdomain-bg" width="10" height="10" x="252" y="24" rx="2" ry="2" style="fill: rgb(250, 135, 54);"></rect></g><g><rect class="ch-subdomain-bg" width="10" height="10" x="252" y="36" rx="2" ry="2" style="fill: rgb(242, 112, 28);"></rect></g><g><rect class="ch-subdomain-bg" width="10" height="10" x="252" y="48" rx="2" ry="2" style="fill: rgb(247, 125, 42);"></rect></g><g><rect class="ch-subdomain-bg" width="10" height="10" x="252" y="60" rx="2" ry="2" style="fill: rgb(248, 127, 44);"></rect></g><g><rect class="ch-subdomain-bg" width="10" height="10" x="252" y="72" rx="2" ry="2" style="fill: rgb(255, 245, 235);"></rect></g><g><rect class="ch-subdomain-bg" width="10" height="10" x="264" y="0" rx="2" ry="2" style="fill: rgb(252, 150, 74);"></rect></g><g><rect class="ch-subdomain-bg" width="10" height="10" x="264" y="12" rx="2" ry="2" style="fill: rgb(245, 118, 35);"></rect></g><g><rect class="ch-subdomain-bg" width="10" height="10" x="264" y="24" rx="2" ry="2" style="fill: rgb(245, 118, 35);"></rect></g><g><rect class="ch-subdomain-bg" width="10" height="10" x="264" y="36" rx="2" ry="2" style="fill: rgb(226, 86, 10);"></rect></g><g><rect class="ch-subdomain-bg" width="10" height="10" x="264" y="48" rx="2" ry="2" style="fill: rgb(246, 120, 37);"></rect></g><g><rect class="ch-subdomain-bg" width="10" height="10" x="264" y="60" rx="2" ry="2" style="fill: rgb(250, 134, 52);"></rect></g><g><rect class="ch-subdomain-bg" width="10" height="10" x="264" y="72" rx="2" ry="2" style="fill: rgb(255, 245, 235);"></rect></g><g><rect class="ch-subdomain-bg" width="10" height="10" x="276" y="0" rx="2" ry="2" style="fill: rgb(253, 203, 156);"></rect></g><g><rect class="ch-subdomain-bg" width="10" height="10" x="276" y="12" rx="2" ry="2" style="fill: rgb(127, 39, 4);"></rect></g><g><rect class="ch-subdomain-bg" width="10" height="10" x="276" y="24" rx="2" ry="2" style="fill: rgb(144, 45, 4);"></rect></g><g><rect class="ch-subdomain-bg" width="10" height="10" x="276" y="36" rx="2" ry="2" style="fill: rgb(255, 245, 235);"></rect></g><g><rect class="ch-subdomain-bg" width="10" height="10" x="276" y="48" rx="2" ry="2" style="fill: rgb(173, 56, 3);"></rect></g><g><rect class="ch-subdomain-bg" width="10" height="10" x="276" y="60" rx="2" ry="2" style="fill: rgb(232, 94, 14);"></rect></g><g><rect class="ch-subdomain-bg" width="10" height="10" x="276" y="72" rx="2" ry="2" style="fill: rgb(255, 245, 235);"></rect></g><g><rect class="ch-subdomain-bg" width="10" height="10" x="288" y="0" rx="2" ry="2" style="fill: rgb(255, 243, 230);"></rect></g><g><rect class="ch-subdomain-bg" width="10" height="10" x="288" y="12" rx="2" ry="2" style="fill: rgb(236, 99, 18);"></rect></g><g><rect class="ch-subdomain-bg" width="10" height="10" x="288" y="24" rx="2" ry="2" style="fill: rgb(245, 119, 36);"></rect></g><g><rect class="ch-subdomain-bg" width="10" height="10" x="288" y="36" rx="2" ry="2" style="fill: rgb(248, 129, 47);"></rect></g><g><rect class="ch-subdomain-bg" width="10" height="10" x="288" y="48" rx="2" ry="2" style="fill: rgb(243, 114, 31);"></rect></g><g><rect class="ch-subdomain-bg" width="10" height="10" x="288" y="60" rx="2" ry="2" style="fill: rgb(253, 197, 144);"></rect></g><g><rect class="ch-subdomain-bg" width="10" height="10" x="288" y="72" rx="2" ry="2" style="fill: rgb(255, 238, 222);"></rect></g><g><rect class="ch-subdomain-bg" width="10" height="10" x="300" y="0" rx="2" ry="2" style="fill: rgb(255, 245, 235);"></rect></g><g><rect class="ch-subdomain-bg" width="10" height="10" x="300" y="12" rx="2" ry="2" style="fill: rgb(190, 63, 2);"></rect></g><g><rect class="ch-subdomain-bg" width="10" height="10" x="300" y="24" rx="2" ry="2" style="fill: rgb(255, 245, 235);"></rect></g><g><rect class="ch-subdomain-bg" width="10" height="10" x="300" y="36" rx="2" ry="2" style="fill: rgb(191, 63, 2);"></rect></g><g><rect class="ch-subdomain-bg" width="10" height="10" x="300" y="48" rx="2" ry="2" style="fill: rgb(251, 138, 58);"></rect></g><g><rect class="ch-subdomain-bg" width="10" height="10" x="300" y="60" rx="2" ry="2" style="fill: rgb(186, 61, 2);"></rect></g><g><rect class="ch-subdomain-bg" width="10" height="10" x="300" y="72" rx="2" ry="2" style="fill: rgb(253, 206, 160);"></rect></g><g><rect class="ch-subdomain-bg" width="10" height="10" x="312" y="0" rx="2" ry="2" style="fill: rgb(255, 245, 235);"></rect></g><g><rect class="ch-subdomain-bg" width="10" height="10" x="312" y="12" rx="2" ry="2" style="fill: rgb(255, 245, 235);"></rect></g><g><rect class="ch-subdomain-bg" width="10" height="10" x="312" y="24" rx="2" ry="2" style="fill: rgb(199, 67, 3);"></rect></g><g><rect class="ch-subdomain-bg" width="10" height="10" x="312" y="36" rx="2" ry="2" style="fill: rgb(194, 64, 2);"></rect></g><g><rect class="ch-subdomain-bg" width="10" height="10" x="312" y="48" rx="2" ry="2" style="fill: rgb(247, 126, 43);"></rect></g><g><rect class="ch-subdomain-bg" width="10" height="10" x="312" y="60" rx="2" ry="2" style="fill: rgb(127, 39, 4);"></rect></g><g><rect class="ch-subdomain-bg" width="10" height="10" x="312" y="72" rx="2" ry="2" style="fill: rgb(255, 240, 225);"></rect></g><g><rect class="ch-subdomain-bg" width="10" height="10" x="324" y="0" rx="2" ry="2" style="fill: rgb(254, 222, 190);"></rect></g><g><rect class="ch-subdomain-bg" width="10" height="10" x="324" y="12" rx="2" ry="2" style="fill: rgb(208, 72, 4);"></rect></g><g><rect class="ch-subdomain-bg" width="10" height="10" x="324" y="24" rx="2" ry="2" style="fill: rgb(246, 121, 38);"></rect></g><g><rect class="ch-subdomain-bg" width="10" height="10" x="324" y="36" rx="2" ry="2" style="fill: rgb(194, 64, 2);"></rect></g><g><rect class="ch-subdomain-bg" width="10" height="10" x="324" y="48" rx="2" ry="2" style="fill: rgb(243, 115, 31);"></rect></g><g><rect class="ch-subdomain-bg" width="10" height="10" x="324" y="60" rx="2" ry="2" style="fill: rgb(245, 118, 35);"></rect></g><g><rect class="ch-subdomain-bg" width="10" height="10" x="324" y="72" rx="2" ry="2" style="fill: rgb(253, 185, 124);"></rect></g><g><rect class="ch-subdomain-bg" width="10" height="10" x="336" y="0" rx="2" ry="2" style="fill: rgb(253, 185, 124);"></rect></g><g><rect class="ch-subdomain-bg" width="10" height="10" x="336" y="12" rx="2" ry="2" style="fill: rgb(210, 73, 4);"></rect></g><g><rect class="ch-subdomain-bg" width="10" height="10" x="336" y="24" rx="2" ry="2" style="fill: rgb(230, 91, 12);"></rect></g><g><rect class="ch-subdomain-bg" width="10" height="10" x="336" y="36" rx="2" ry="2" style="fill: rgb(220, 81, 7);"></rect></g><g><rect class="ch-subdomain-bg" width="10" height="10" x="336" y="48" rx="2" ry="2" style="fill: rgb(228, 89, 11);"></rect></g><g><rect class="ch-subdomain-bg" width="10" height="10" x="336" y="60" rx="2" ry="2" style="fill: rgb(248, 127, 44);"></rect></g><g><rect class="ch-subdomain-bg" width="10" height="10" x="336" y="72" rx="2" ry="2" style="fill: rgb(255, 245, 235);"></rect></g><g><rect class="ch-subdomain-bg" width="10" height="10" x="348" y="0" rx="2" ry="2" style="fill: rgb(253, 185, 126);"></rect></g><g><rect class="ch-subdomain-bg" width="10" height="10" x="348" y="12" rx="2" ry="2" style="fill: rgb(251, 141, 61);"></rect></g><g><rect class="ch-subdomain-bg" width="10" height="10" x="348" y="24" rx="2" ry="2" style="fill: rgb(251, 141, 62);"></rect></g><g><rect class="ch-subdomain-bg" width="10" height="10" x="348" y="36" rx="2" ry="2" style="fill: rgb(255, 245, 235);"></rect></g><g><rect class="ch-subdomain-bg" width="10" height="10" x="348" y="48" rx="2" ry="2" style="fill: rgb(243, 115, 31);"></rect></g><g><rect class="ch-subdomain-bg" width="10" height="10" x="348" y="60" rx="2" ry="2" style="fill: rgb(249, 133, 51);"></rect></g><g><rect class="ch-subdomain-bg" width="10" height="10" x="348" y="72" rx="2" ry="2" style="fill: rgb(254, 222, 190);"></rect></g><g><rect class="ch-subdomain-bg" width="10" height="10" x="360" y="0" rx="2" ry="2" style="fill: rgb(253, 170, 102);"></rect></g><g><rect class="ch-subdomain-bg" width="10" height="10" x="360" y="12" rx="2" ry="2" style="fill: rgb(247, 126, 43);"></rect></g><g><rect class="ch-subdomain-bg" width="10" height="10" x="360" y="24" rx="2" ry="2" style="fill: rgb(233, 95, 15);"></rect></g><g><rect class="ch-subdomain-bg" width="10" height="10" x="360" y="36" rx="2" ry="2" style="fill: rgb(243, 114, 31);"></rect></g><g><rect class="ch-subdomain-bg" width="10" height="10" x="360" y="48" rx="2" ry="2" style="fill: rgb(248, 129, 47);"></rect></g><g><rect class="ch-subdomain-bg" width="10" height="10" x="360" y="60" rx="2" ry="2" style="fill: rgb(247, 125, 42);"></rect></g><g><rect class="ch-subdomain-bg" width="10" height="10" x="360" y="72" rx="2" ry="2" style="fill: rgb(253, 202, 153);"></rect></g><g><rect class="ch-subdomain-bg" width="10" height="10" x="372" y="0" rx="2" ry="2" style="fill: rgb(254, 224, 193);"></rect></g><g><rect class="ch-subdomain-bg" width="10" height="10" x="372" y="12" rx="2" ry="2" style="fill: rgb(246, 121, 38);"></rect></g><g><rect class="ch-subdomain-bg" width="10" height="10" x="372" y="24" rx="2" ry="2" style="fill: rgb(245, 118, 35);"></rect></g><g><rect class="ch-subdomain-bg" width="10" height="10" x="372" y="36" rx="2" ry="2" style="fill: rgb(245, 119, 35);"></rect></g><g><rect class="ch-subdomain-bg" width="10" height="10" x="372" y="48" rx="2" ry="2" style="fill: rgb(255, 245, 235);"></rect></g><g><rect class="ch-subdomain-bg" width="10" height="10" x="372" y="60" rx="2" ry="2" style="fill: rgb(255, 245, 235);"></rect></g><g><rect class="ch-subdomain-bg" width="10" height="10" x="372" y="72" rx="2" ry="2" style="fill: rgb(251, 138, 58);"></rect></g><g><rect class="ch-subdomain-bg" width="10" height="10" x="384" y="0" rx="2" ry="2" style="fill: rgb(255, 245, 235);"></rect></g><g><rect class="ch-subdomain-bg" width="10" height="10" x="384" y="12" rx="2" ry="2" style="fill: rgb(253, 160, 87);"></rect></g><g><rect class="ch-subdomain-bg" width="10" height="10" x="384" y="24" rx="2" ry="2" style="fill: rgb(248, 127, 45);"></rect></g><g><rect class="ch-subdomain-bg" width="10" height="10" x="384" y="36" rx="2" ry="2" style="fill: rgb(253, 160, 87);"></rect></g><g><rect class="ch-subdomain-bg" width="10" height="10" x="384" y="48" rx="2" ry="2" style="fill: rgb(196, 65, 3);"></rect></g><g><rect class="ch-subdomain-bg" width="10" height="10" x="384" y="60" rx="2" ry="2" style="fill: rgb(191, 63, 2);"></rect></g><g><rect class="ch-subdomain-bg" width="10" height="10" x="384" y="72" rx="2" ry="2" style="fill: rgb(154, 49, 3);"></rect></g><g><rect class="ch-subdomain-bg" width="10" height="10" x="396" y="0" rx="2" ry="2" style="fill: rgb(255, 245, 235);"></rect></g><g><rect class="ch-subdomain-bg" width="10" height="10" x="396" y="12" rx="2" ry="2" style="fill: rgb(205, 70, 3);"></rect></g><g><rect class="ch-subdomain-bg" width="10" height="10" x="396" y="24" rx="2" ry="2" style="fill: rgb(186, 61, 2);"></rect></g><g><rect class="ch-subdomain-bg" width="10" height="10" x="396" y="36" rx="2" ry="2" style="fill: rgb(246, 123, 40);"></rect></g><g><rect class="ch-subdomain-bg" width="10" height="10" x="396" y="48" rx="2" ry="2" style="fill: rgb(210, 73, 4);"></rect></g><g><rect class="ch-subdomain-bg" width="10" height="10" x="396" y="60" rx="2" ry="2" style="fill: rgb(249, 130, 49);"></rect></g><g><rect class="ch-subdomain-bg" width="10" height="10" x="396" y="72" rx="2" ry="2" style="fill: rgb(251, 141, 62);"></rect></g><g><rect class="ch-subdomain-bg" width="10" height="10" x="408" y="0" rx="2" ry="2" style="fill: rgb(252, 149, 72);"></rect></g><g><rect class="ch-subdomain-bg" width="10" height="10" x="408" y="12" rx="2" ry="2" style="fill: rgb(191, 63, 2);"></rect></g><g><rect class="ch-subdomain-bg" width="10" height="10" x="408" y="24" rx="2" ry="2" style="fill: rgb(218, 79, 6);"></rect></g><g><rect class="ch-subdomain-bg" width="10" height="10" x="408" y="36" rx="2" ry="2" style="fill: rgb(186, 61, 2);"></rect></g><g><rect class="ch-subdomain-bg" width="10" height="10" x="408" y="48" rx="2" ry="2" style="fill: rgb(186, 61, 2);"></rect></g><g><rect class="ch-subdomain-bg" width="10" height="10" x="408" y="60" rx="2" ry="2" style="fill: rgb(196, 65, 3);"></rect></g><g><rect class="ch-subdomain-bg" width="10" height="10" x="408" y="72" rx="2" ry="2" style="fill: rgb(255, 245, 235);"></rect></g><g><rect class="ch-subdomain-bg" width="10" height="10" x="420" y="0" rx="2" ry="2" style="fill: rgb(252, 149, 72);"></rect></g><g><rect class="ch-subdomain-bg" width="10" height="10" x="420" y="12" rx="2" ry="2" style="fill: rgb(205, 70, 3);"></rect></g><g><rect class="ch-subdomain-bg" width="10" height="10" x="420" y="24" rx="2" ry="2" style="fill: rgb(201, 68, 3);"></rect></g><g><rect class="ch-subdomain-bg" width="10" height="10" x="420" y="36" rx="2" ry="2" style="fill: rgb(186, 61, 2);"></rect></g><g><rect class="ch-subdomain-bg" width="10" height="10" x="420" y="48" rx="2" ry="2" style="fill: rgb(255, 245, 235);"></rect></g><g><rect class="ch-subdomain-bg" width="10" height="10" x="420" y="60" rx="2" ry="2" style="fill: rgb(246, 121, 38);"></rect></g><g><rect class="ch-subdomain-bg" width="10" height="10" x="420" y="72" rx="2" ry="2" style="fill: rgb(254, 233, 211);"></rect></g><g><rect class="ch-subdomain-bg" width="10" height="10" x="432" y="0" rx="2" ry="2" style="fill: rgb(244, 116, 33);"></rect></g><g><rect class="ch-subdomain-bg" width="10" height="10" x="432" y="12" rx="2" ry="2" style="fill: rgb(180, 59, 2);"></rect></g><g><rect class="ch-subdomain-bg" width="10" height="10" x="432" y="24" rx="2" ry="2" style="fill: rgb(184, 61, 2);"></rect></g><g><rect class="ch-subdomain-bg" width="10" height="10" x="432" y="36" rx="2" ry="2" style="fill: rgb(209, 72, 4);"></rect></g><g><rect class="ch-subdomain-bg" width="10" height="10" x="432" y="48" rx="2" ry="2" style="fill: rgb(248, 127, 45);"></rect></g><g><rect class="ch-subdomain-bg" width="10" height="10" x="432" y="60" rx="2" ry="2" style="fill: rgb(197, 66, 3);"></rect></g><g><rect class="ch-subdomain-bg" width="10" height="10" x="432" y="72" rx="2" ry="2" style="fill: rgb(255, 238, 221);"></rect></g><g><rect class="ch-subdomain-bg" width="10" height="10" x="444" y="0" rx="2" ry="2" style="fill: rgb(255, 245, 235);"></rect></g><g><rect class="ch-subdomain-bg" width="10" height="10" x="444" y="12" rx="2" ry="2" style="fill: rgb(246, 120, 37);"></rect></g><g><rect class="ch-subdomain-bg" width="10" height="10" x="444" y="24" rx="2" ry="2" style="fill: rgb(246, 122, 39);"></rect></g><g><rect class="ch-subdomain-bg" width="10" height="10" x="444" y="36" rx="2" ry="2" style="fill: rgb(246, 123, 40);"></rect></g><g><rect class="ch-subdomain-bg" width="10" height="10" x="444" y="48" rx="2" ry="2" style="fill: rgb(250, 136, 55);"></rect></g><g><rect class="ch-subdomain-bg" width="10" height="10" x="444" y="60" rx="2" ry="2" style="fill: rgb(244, 116, 33);"></rect></g><g><rect class="ch-subdomain-bg" width="10" height="10" x="444" y="72" rx="2" ry="2" style="fill: rgb(253, 212, 172);"></rect></g><g><rect class="ch-subdomain-bg" width="10" height="10" x="456" y="0" rx="2" ry="2" style="fill: rgb(254, 236, 217);"></rect></g><g><rect class="ch-subdomain-bg" width="10" height="10" x="456" y="12" rx="2" ry="2" style="fill: rgb(248, 127, 45);"></rect></g><g><rect class="ch-subdomain-bg" width="10" height="10" x="456" y="24" rx="2" ry="2" style="fill: rgb(127, 39, 4);"></rect></g><g><rect class="ch-subdomain-bg" width="10" height="10" x="456" y="36" rx="2" ry="2" style="fill: rgb(255, 245, 235);"></rect></g><g><rect class="ch-subdomain-bg" width="10" height="10" x="456" y="48" rx="2" ry="2" style="fill: rgb(249, 131, 50);"></rect></g><g><rect class="ch-subdomain-bg" width="10" height="10" x="456" y="60" rx="2" ry="2" style="fill: rgb(240, 107, 24);"></rect></g><g><rect class="ch-subdomain-bg" width="10" height="10" x="456" y="72" rx="2" ry="2" style="fill: rgb(127, 39, 4);"></rect></g><g><rect class="ch-subdomain-bg" width="10" height="10" x="468" y="0" rx="2" ry="2" style="fill: rgb(255, 245, 235);"></rect></g><g><rect class="ch-subdomain-bg" width="10" height="10" x="468" y="12" rx="2" ry="2" style="fill: rgb(245, 119, 35);"></rect></g><g><rect class="ch-subdomain-bg" width="10" height="10" x="468" y="24" rx="2" ry="2" style="fill: rgb(242, 112, 29);"></rect></g><g><rect class="ch-subdomain-bg" width="10" height="10" x="468" y="36" rx="2" ry="2" style="fill: rgb(253, 165, 95);"></rect></g><g><rect class="ch-subdomain-bg" width="10" height="10" x="468" y="48" rx="2" ry="2" style="fill: rgb(213, 75, 4);"></rect></g><g><rect class="ch-subdomain-bg" width="10" height="10" x="468" y="60" rx="2" ry="2" style="fill: rgb(236, 99, 18);"></rect></g><g><rect class="ch-subdomain-bg" width="10" height="10" x="468" y="72" rx="2" ry="2" style="fill: rgb(254, 231, 207);"></rect></g><g><rect class="ch-subdomain-bg" width="10" height="10" x="480" y="0" rx="2" ry="2" style="fill: rgb(253, 205, 158);"></rect></g><g><rect class="ch-subdomain-bg" width="10" height="10" x="480" y="12" rx="2" ry="2" style="fill: rgb(238, 104, 22);"></rect></g><g><rect class="ch-subdomain-bg" width="10" height="10" x="480" y="24" rx="2" ry="2" style="fill: rgb(242, 112, 28);"></rect></g><g><rect class="ch-subdomain-bg" width="10" height="10" x="480" y="36" rx="2" ry="2" style="fill: rgb(255, 245, 235);"></rect></g><g><rect class="ch-subdomain-bg" width="10" height="10" x="480" y="48" rx="2" ry="2" style="fill: rgb(255, 245, 235);"></rect></g><g><rect class="ch-subdomain-bg" width="10" height="10" x="480" y="60" rx="2" ry="2" style="fill: rgb(245, 119, 36);"></rect></g><g><rect class="ch-subdomain-bg" width="10" height="10" x="480" y="72" rx="2" ry="2" style="fill: rgb(253, 171, 104);"></rect></g><g><rect class="ch-subdomain-bg" width="10" height="10" x="492" y="0" rx="2" ry="2" style="fill: rgb(253, 159, 86);"></rect></g><g><rect class="ch-subdomain-bg" width="10" height="10" x="492" y="12" rx="2" ry="2" style="fill: rgb(254, 230, 207);"></rect></g><g><rect class="ch-subdomain-bg" width="10" height="10" x="492" y="24" rx="2" ry="2" style="fill: rgb(219, 79, 6);"></rect></g><g><rect class="ch-subdomain-bg" width="10" height="10" x="492" y="36" rx="2" ry="2" style="fill: rgb(240, 108, 25);"></rect></g><g><rect class="ch-subdomain-bg" width="10" height="10" x="492" y="48" rx="2" ry="2" style="fill: rgb(241, 109, 26);"></rect></g><g><rect class="ch-subdomain-bg" width="10" height="10" x="492" y="60" rx="2" ry="2" style="fill: rgb(238, 103, 21);"></rect></g><g><rect class="ch-subdomain-bg" width="10" height="10" x="492" y="72" rx="2" ry="2" style="fill: rgb(253, 205, 159);"></rect></g><g><rect class="ch-subdomain-bg" width="10" height="10" x="504" y="0" rx="2" ry="2" style="fill: rgb(255, 245, 235);"></rect></g><g><rect class="ch-subdomain-bg" width="10" height="10" x="504" y="12" rx="2" ry="2" style="fill: rgb(213, 75, 5);"></rect></g><g><rect class="ch-subdomain-bg" width="10" height="10" x="504" y="24" rx="2" ry="2" style="fill: rgb(235, 99, 17);"></rect></g><g><rect class="ch-subdomain-bg" width="10" height="10" x="504" y="36" rx="2" ry="2" style="fill: rgb(253, 154, 79);"></rect></g><g><rect class="ch-subdomain-bg" width="10" height="10" x="504" y="48" rx="2" ry="2" style="fill: rgb(245, 118, 35);"></rect></g><g><rect class="ch-subdomain-bg" width="10" height="10" x="504" y="60" rx="2" ry="2" style="fill: rgb(183, 60, 2);"></rect></g><g><rect class="ch-subdomain-bg" width="10" height="10" x="504" y="72" rx="2" ry="2" style="fill: rgb(255, 245, 235);"></rect></g><g><rect class="ch-subdomain-bg" width="10" height="10" x="516" y="0" rx="2" ry="2" style="fill: rgb(253, 162, 90);"></rect></g><g><rect class="ch-subdomain-bg" width="10" height="10" x="516" y="12" rx="2" ry="2" style="fill: rgb(242, 111, 28);"></rect></g><g><rect class="ch-subdomain-bg" width="10" height="10" x="516" y="24" rx="2" ry="2" style="fill: rgb(237, 102, 20);"></rect></g><g><rect class="ch-subdomain-bg" width="10" height="10" x="516" y="36" rx="2" ry="2" style="fill: rgb(255, 245, 235);"></rect></g><g><rect class="ch-subdomain-bg" width="10" height="10" x="516" y="48" rx="2" ry="2" style="fill: rgb(226, 86, 9);"></rect></g><g><rect class="ch-subdomain-bg" width="10" height="10" x="516" y="60" rx="2" ry="2" style="fill: rgb(255, 245, 235);"></rect></g><g><rect class="ch-subdomain-bg" width="10" height="10" x="516" y="72" rx="2" ry="2" style="fill: rgb(255, 245, 235);"></rect></g><g><rect class="ch-subdomain-bg" width="10" height="10" x="528" y="0" rx="2" ry="2" style="fill: rgb(255, 245, 235);"></rect></g><g><rect class="ch-subdomain-bg" width="10" height="10" x="528" y="12" rx="2" ry="2" style="fill: rgb(182, 60, 2);"></rect></g><g><rect class="ch-subdomain-bg" width="10" height="10" x="528" y="24" rx="2" ry="2" style="fill: rgb(246, 121, 38);"></rect></g><g><rect class="ch-subdomain-bg" width="10" height="10" x="528" y="36" rx="2" ry="2" style="fill: rgb(245, 118, 35);"></rect></g><g><rect class="ch-subdomain-bg" width="10" height="10" x="528" y="48" rx="2" ry="2" style="fill: rgb(248, 127, 45);"></rect></g><g><rect class="ch-subdomain-bg" width="10" height="10" x="528" y="60" rx="2" ry="2" style="fill: rgb(247, 126, 43);"></rect></g><g><rect class="ch-subdomain-bg" width="10" height="10" x="528" y="72" rx="2" ry="2" style="fill: rgb(253, 213, 173);"></rect></g><g><rect class="ch-subdomain-bg" width="10" height="10" x="540" y="0" rx="2" ry="2" style="fill: rgb(253, 214, 175);"></rect></g><g><rect class="ch-subdomain-bg" width="10" height="10" x="540" y="12" rx="2" ry="2" style="fill: rgb(232, 94, 14);"></rect></g><g><rect class="ch-subdomain-bg" width="10" height="10" x="540" y="24" rx="2" ry="2" style="fill: rgb(248, 127, 45);"></rect></g><g><rect class="ch-subdomain-bg" width="10" height="10" x="540" y="36" rx="2" ry="2" style="fill: rgb(249, 130, 49);"></rect></g><g><rect class="ch-subdomain-bg" width="10" height="10" x="540" y="48" rx="2" ry="2" style="fill: rgb(248, 127, 45);"></rect></g><g><rect class="ch-subdomain-bg" width="10" height="10" x="540" y="60" rx="2" ry="2" style="fill: rgb(247, 126, 43);"></rect></g><g><rect class="ch-subdomain-bg" width="10" height="10" x="540" y="72" rx="2" ry="2" style="fill: rgb(254, 228, 202);"></rect></g><g><rect class="ch-subdomain-bg" width="10" height="10" x="552" y="0" rx="2" ry="2" style="fill: rgb(253, 190, 134);"></rect></g><g><rect class="ch-subdomain-bg" width="10" height="10" x="552" y="12" rx="2" ry="2" style="fill: rgb(244, 116, 33);"></rect></g><g><rect class="ch-subdomain-bg" width="10" height="10" x="552" y="24" rx="2" ry="2" style="fill: rgb(255, 245, 235);"></rect></g><g><rect class="ch-subdomain-bg" width="10" height="10" x="552" y="36" rx="2" ry="2" style="fill: rgb(247, 125, 42);"></rect></g><g><rect class="ch-subdomain-bg" width="10" height="10" x="552" y="48" rx="2" ry="2" style="fill: rgb(251, 138, 58);"></rect></g><g><rect class="ch-subdomain-bg" width="10" height="10" x="552" y="60" rx="2" ry="2" style="fill: rgb(251, 140, 60);"></rect></g><g><rect class="ch-subdomain-bg" width="10" height="10" x="552" y="72" rx="2" ry="2" style="fill: rgb(253, 215, 177);"></rect></g><g><rect class="ch-subdomain-bg" width="10" height="10" x="564" y="0" rx="2" ry="2" style="fill: rgb(253, 208, 163);"></rect></g><g><rect class="ch-subdomain-bg" width="10" height="10" x="564" y="12" rx="2" ry="2" style="fill: rgb(254, 222, 190);"></rect></g><g><rect class="ch-subdomain-bg" width="10" height="10" x="564" y="24" rx="2" ry="2" style="fill: rgb(237, 102, 20);"></rect></g><g><rect class="ch-subdomain-bg" width="10" height="10" x="564" y="36" rx="2" ry="2" style="fill: rgb(248, 128, 46);"></rect></g><g><rect class="ch-subdomain-bg" width="10" height="10" x="564" y="48" rx="2" ry="2" style="fill: rgb(248, 127, 45);"></rect></g><g><rect class="ch-subdomain-bg" width="10" height="10" x="564" y="60" rx="2" ry="2" style="fill: rgb(247, 126, 43);"></rect></g><g><rect class="ch-subdomain-bg" width="10" height="10" x="564" y="72" rx="2" ry="2" style="fill: rgb(255, 245, 235);"></rect></g><g><rect class="ch-subdomain-bg" width="10" height="10" x="576" y="0" rx="2" ry="2" style="fill: rgb(253, 188, 129);"></rect></g><g><rect class="ch-subdomain-bg" width="10" height="10" x="576" y="12" rx="2" ry="2" style="fill: rgb(248, 129, 47);"></rect></g><g><rect class="ch-subdomain-bg" width="10" height="10" x="576" y="24" rx="2" ry="2" style="fill: rgb(249, 133, 51);"></rect></g><g><rect class="ch-subdomain-bg" width="10" height="10" x="576" y="36" rx="2" ry="2" style="fill: rgb(208, 72, 4);"></rect></g><g><rect class="ch-subdomain-bg" width="10" height="10" x="576" y="48" rx="2" ry="2" style="fill: rgb(245, 119, 35);"></rect></g><g><rect class="ch-subdomain-bg" width="10" height="10" x="576" y="60" rx="2" ry="2" style="fill: rgb(249, 131, 50);"></rect></g><g><rect class="ch-subdomain-bg" width="10" height="10" x="576" y="72" rx="2" ry="2" style="fill: rgb(255, 245, 235);"></rect></g><g><rect class="ch-subdomain-bg" width="10" height="10" x="588" y="0" rx="2" ry="2" style="fill: rgb(255, 245, 235);"></rect></g><g><rect class="ch-subdomain-bg" width="10" height="10" x="588" y="12" rx="2" ry="2" style="fill: rgb(237, 102, 20);"></rect></g><g><rect class="ch-subdomain-bg" width="10" height="10" x="588" y="24" rx="2" ry="2" style="fill: rgb(190, 63, 2);"></rect></g><g><rect class="ch-subdomain-bg" width="10" height="10" x="588" y="36" rx="2" ry="2" style="fill: rgb(247, 125, 42);"></rect></g><g><rect class="ch-subdomain-bg" width="10" height="10" x="588" y="48" rx="2" ry="2" style="fill: rgb(250, 134, 53);"></rect></g><g><rect class="ch-subdomain-bg" width="10" height="10" x="588" y="60" rx="2" ry="2" style="fill: rgb(246, 121, 38);"></rect></g><g><rect class="ch-subdomain-bg" width="10" height="10" x="588" y="72" rx="2" ry="2" style="fill: rgb(192, 64, 2);"></rect></g><g><rect class="ch-subdomain-bg" width="10" height="10" x="600" y="0" rx="2" ry="2" style="fill: rgb(253, 211, 169);"></rect></g><g><rect class="ch-subdomain-bg" width="10" height="10" x="600" y="12" rx="2" ry="2" style="fill: rgb(255, 245, 235);"></rect></g><g><rect class="ch-subdomain-bg" width="10" height="10" x="600" y="24" rx="2" ry="2" style="fill: rgb(255, 245, 235);"></rect></g><g><rect class="ch-subdomain-bg" width="10" height="10" x="600" y="36" rx="2" ry="2" style="fill: rgb(255, 245, 235);"></rect></g><g><rect class="ch-subdomain-bg" width="10" height="10" x="600" y="48" rx="2" ry="2" style="fill: rgb(255, 245, 235);"></rect></g><g><rect class="ch-subdomain-bg" width="10" height="10" x="600" y="60" rx="2" ry="2" style="fill: rgb(255, 245, 235);"></rect></g><g><rect class="ch-subdomain-bg" width="10" height="10" x="600" y="72" rx="2" ry="2" style="fill: rgb(255, 245, 235);"></rect></g><g><rect class="ch-subdomain-bg" width="10" height="10" x="612" y="0" rx="2" ry="2" style="fill: rgb(255, 245, 235);"></rect></g><g><rect class="ch-subdomain-bg" width="10" height="10" x="612" y="12" rx="2" ry="2" style="fill: rgb(229, 90, 12);"></rect></g><g><rect class="ch-subdomain-bg" width="10" height="10" x="612" y="24" rx="2" ry="2" style="fill: rgb(244, 116, 32);"></rect></g><g><rect class="ch-subdomain-bg" width="10" height="10" x="612" y="36" rx="2" ry="2" style="fill: rgb(245, 119, 36);"></rect></g><g><rect class="ch-subdomain-bg" width="10" height="10" x="612" y="48" rx="2" ry="2" style="fill: rgb(147, 47, 3);"></rect></g><g><rect class="ch-subdomain-bg" width="10" height="10" x="612" y="60" rx="2" ry="2" style="fill: rgb(255, 245, 235);"></rect></g><g><rect class="ch-subdomain-bg" width="10" height="10" x="612" y="72" rx="2" ry="2" style="fill: rgb(255, 245, 235);"></rect></g><g><rect class="ch-subdomain-bg" width="10" height="10" x="624" y="0" rx="2" ry="2" style="fill: rgb(255, 245, 235);"></rect></g><g><rect class="ch-subdomain-bg" width="10" height="10" x="624" y="12" rx="2" ry="2" style="fill: rgb(254, 233, 211);"></rect></g><g><rect class="ch-subdomain-bg" width="10" height="10" x="624" y="24" rx="2" ry="2" style="fill: rgb(255, 245, 235);"></rect></g><g><rect class="ch-subdomain-bg" width="10" height="10" x="624" y="36" rx="2" ry="2" style="fill: rgb(253, 217, 180);"></rect></g></svg><text class="ch-domain-text" x="317" y="94.5" text-anchor="middle" dominant-baseline="middle">2025</text></svg></svg></svg></svg>