<svg data-theme="dark" class="ch-container" x="0" y="0" width="634" height="107"><svg class="ch-domain-container" x="0" y="0"><svg class="ch-domain-container-animation-wrapper" width="634" height="107"><svg x="0" y="0" width="634" height="107" class="ch-domain y_2023"><rect width="634" height="107" class="ch-domain-bg"></rect><svg x="0" y="0" class="ch-subdomain-container"><g><rect class="ch-subdomain-bg" width="10" height="10" x="0" y="0" rx="2" ry="2" style="fill: rgb(174, 57, 3);"></rect></g><g><rect class="ch-subdomain-bg" width="10" height="10" x="0" y="12" rx="2" ry="2" style="fill: rgb(232, 94, 14);"></rect></g><g><rect class="ch-subdomain-bg" width="10" height="10" x="0" y="24" rx="2" ry="2" style="fill: rgb(250, 137, 56);"></rect></g><g><rect class="ch-subdomain-bg" width="10" height="10" x="0" y="36" rx="2" ry="2" style="fill: rgb(206, 71, 3);"></rect></g><g><rect class="ch-subdomain-bg" width="10" height="10" x="0" y="48" rx="2" ry="2" style="fill: rgb(188, 62, 2);"></rect></g><g><rect class="ch-subdomain-bg" width="10" height="10" x="0" y="60" rx="2" ry="2" style="fill: rgb(253, 210, 167);"></rect></g><g><rect class="ch-subdomain-bg" width="10" height="10" x="0" y="72" rx="2" ry="2" style="fill: rgb(236, 101, 19);"></rect></g><g><rect class="ch-subdomain-bg" width="10" height="10" x="12" y="0" rx="2" ry="2" style="fill: rgb(217, 77, 5);"></rect></g><g><rect class="ch-subdomain-bg" width="10" height="10" x="12" y="12" rx="2" ry="2" style="fill: rgb(238, 103, 21);"></rect></g><g><rect class="ch-subdomain-bg" width="10" height="10" x="12" y="24" rx="2" ry="2" style="fill: rgb(221, 81, 7);"></rect></g><g><rect class="ch-subdomain-bg" width="10" height="10" x="12" y="36" rx="2" ry="2" style="fill: rgb(227, 87, 10);"></rect></g><g><rect class="ch-subdomain-bg" width="10" height="10" x="12" y="48" rx="2" ry="2" style="fill: rgb(253, 199, 148);"></rect></g><g><rect class="ch-subdomain-bg" width="10" height="10" x="12" y="60" rx="2" ry="2" style="fill: rgb(229, 90, 12);"></rect></g><g><rect class="ch-subdomain-bg" width="10" height="10" x="12" y="72" rx="2" ry="2" style="fill: rgb(232, 94, 14);"></rect></g><g><rect class="ch-subdomain-bg" width="10" height="10" x="24" y="0" rx="2" ry="2" style="fill: rgb(225, 85, 9);"></rect></g><g><rect class="ch-subdomain-bg" width="10" height="10" x="24" y="12" rx="2" ry="2" style="fill: rgb(201, 68, 3);"></rect></g><g><rect class="ch-subdomain-bg" width="10" height="10" x="24" y="24" rx="2" ry="2" style="fill: rgb(224, 84, 8);"></rect></g><g><rect class="ch-subdomain-bg" width="10" height="10" x="24" y="36" rx="2" ry="2" style="fill: rgb(190, 63, 2);"></rect></g><g><rect class="ch-subdomain-bg" width="10" height="10" x="24" y="48" rx="2" ry="2" style="fill: rgb(219, 79, 6);"></rect></g><g><rect class="ch-subdomain-bg" width="10" height="10" x="24" y="60" rx="2" ry="2" style="fill: rgb(127, 39, 4);"></rect></g><g><rect class="ch-subdomain-bg" width="10" height="10" x="24" y="72" rx="2" ry="2" style="fill: rgb(181, 59, 2);"></rect></g><g><rect class="ch-subdomain-bg" width="10" height="10" x="36" y="0" rx="2" ry="2" style="fill: rgb(193, 64, 2);"></rect></g><g><rect class="ch-subdomain-bg" width="10" height="10" x="36" y="12" rx="2" ry="2" style="fill: rgb(200, 67, 3);"></rect></g><g><rect class="ch-subdomain-bg" width="10" height="10" x="36" y="24" rx="2" ry="2" style="fill: rgb(192, 64, 2);"></rect></g><g><rect class="ch-subdomain-bg" width="10" height="10" x="36" y="36" rx="2" ry="2" style="fill: rgb(217, 78, 6);"></rect></g><g><rect class="ch-subdomain-bg" width="10" height="10" x="36" y="48" rx="2" ry="2" style="fill: rgb(248, 127, 44);"></rect></g><g><rect class="ch-subdomain-bg" width="10" height="10" x="36" y="60" rx="2" ry="2" style="fill: rgb(242, 112, 28);"></rect></g><g><rect class="ch-subdomain-bg" width="10" height="10" x="36" y="72" rx="2" ry="2" style="fill: rgb(232, 94, 14);"></rect></g><g><rect class="ch-subdomain-bg" width="10" height="10" x="48" y="0" rx="2" ry="2" style="fill: rgb(227, 88, 10);"></rect></g><g><rect class="ch-subdomain-bg" width="10" height="10" x="48" y="12" rx="2" ry="2" style="fill: rgb(188, 62, 2);"></rect></g><g><rect class="ch-subdomain-bg" width="10" height="10" x="48" y="24" rx="2" ry="2" style="fill: rgb(217, 78, 6);"></rect></g><g><rect class="ch-subdomain-bg" width="10" height="10" x="48" y="36" rx="2" ry="2" style="fill: rgb(189, 62, 2);"></rect></g><g><rect class="ch-subdomain-bg" width="10" height="10" x="48" y="48" rx="2" ry="2" style="fill: rgb(214, 76, 5);"></rect></g><g><rect class="ch-subdomain-bg" width="10" height="10" x="48" y="60" rx="2" ry="2" style="fill: rgb(203, 69, 3);"></rect></g><g><rect class="ch-subdomain-bg" width="10" height="10" x="48" y="72" rx="2" ry="2" style="fill: rgb(168, 55, 3);"></rect></g><g><rect class="ch-subdomain-bg" width="10" height="10" x="60" y="0" rx="2" ry="2" style="fill: rgb(233, 96, 15);"></rect></g><g><rect class="ch-subdomain-bg" width="10" height="10" x="60" y="12" rx="2" ry="2" style="fill: rgb(215, 76, 5);"></rect></g><g><rect class="ch-subdomain-bg" width="10" height="10" x="60" y="24" rx="2" ry="2" style="fill: rgb(198, 66, 3);"></rect></g><g><rect class="ch-subdomain-bg" width="10" height="10" x="60" y="36" rx="2" ry="2" style="fill: rgb(127, 39, 4);"></rect></g><g><rect class="ch-subdomain-bg" width="10" height="10" x="60" y="48" rx="2" ry="2" style="fill: rgb(197, 66, 3);"></rect></g><g><rect class="ch-subdomain-bg" width="10" height="10" x="60" y="60" rx="2" ry="2" style="fill: rgb(233, 96, 15);"></rect></g><g><rect class="ch-subdomain-bg" width="10" height="10" x="60" y="72" rx="2" ry="2" style="fill: rgb(127, 39, 4);"></rect></g><g><rect class="ch-subdomain-bg" width="10" height="10" x="72" y="0" rx="2" ry="2" style="fill: rgb(183, 60, 2);"></rect></g><g><rect class="ch-subdomain-bg" width="10" height="10" x="72" y="12" rx="2" ry="2" style="fill: rgb(205, 70, 3);"></rect></g><g><rect class="ch-subdomain-bg" width="10" height="10" x="72" y="24" rx="2" ry="2" style="fill: rgb(205, 70, 3);"></rect></g><g><rect class="ch-subdomain-bg" width="10" height="10" x="72" y="36" rx="2" ry="2" style="fill: rgb(219, 80, 6);"></rect></g><g><rect class="ch-subdomain-bg" width="10" height="10" x="72" y="48" rx="2" ry="2" style="fill: rgb(224, 84, 8);"></rect></g><g><rect class="ch-subdomain-bg" width="10" height="10" x="72" y="60" rx="2" ry="2" style="fill: rgb(247, 126, 43);"></rect></g><g><rect class="ch-subdomain-bg" width="10" height="10" x="72" y="72" rx="2" ry="2" style="fill: rgb(253, 207, 162);"></rect></g><g><rect class="ch-subdomain-bg" width="10" height="10" x="84" y="0" rx="2" ry="2" style="fill: rgb(227, 87, 10);"></rect></g><g><rect class="ch-subdomain-bg" width="10" height="10" x="84" y="12" rx="2" ry="2" style="fill: rgb(181, 59, 2);"></rect></g><g><rect class="ch-subdomain-bg" width="10" height="10" x="84" y="24" rx="2" ry="2" style="fill: rgb(253, 178, 114);"></rect></g><g><rect class="ch-subdomain-bg" width="10" height="10" x="84" y="36" rx="2" ry="2" style="fill: rgb(227, 87, 10);"></rect></g><g><rect class="ch-subdomain-bg" width="10" height="10" x="84" y="48" rx="2" ry="2" style="fill: rgb(239, 105, 22);"></rect></g><g><rect class="ch-subdomain-bg" width="10" height="10" x="84" y="60" rx="2" ry="2" style="fill: rgb(136, 42, 4);"></rect></g><g><rect class="ch-subdomain-bg" width="10" height="10" x="84" y="72" rx="2" ry="2" style="fill: rgb(254, 228, 201);"></rect></g><g><rect class="ch-subdomain-bg" width="10" height="10" x="96" y="0" rx="2" ry="2" style="fill: rgb(249, 130, 49);"></rect></g><g><rect class="ch-subdomain-bg" width="10" height="10" x="96" y="12" rx="2" ry="2" style="fill: rgb(167, 54, 3);"></rect></g><g><rect class="ch-subdomain-bg" width="10" height="10" x="96" y="24" rx="2" ry="2" style="fill: rgb(145, 46, 4);"></rect></g><g><rect class="ch-subdomain-bg" width="10" height="10" x="96" y="36" rx="2" ry="2" style="fill: rgb(127, 39, 4);"></rect></g><g><rect class="ch-subdomain-bg" width="10" height="10" x="96" y="48" rx="2" ry="2" style="fill: rgb(232, 94, 14);"></rect></g><g><rect class="ch-subdomain-bg" width="10" height="10" x="96" y="60" rx="2" ry="2" style="fill: rgb(242, 112, 28);"></rect></g><g><rect class="ch-subdomain-bg" width="10" height="10" x="96" y="72" rx="2" ry="2" style="fill: rgb(199, 67, 3);"></rect></g><g><rect class="ch-subdomain-bg" width="10" height="10" x="108" y="0" rx="2" ry="2" style="fill: rgb(253, 205, 159);"></rect></g><g><rect class="ch-subdomain-bg" width="10" height="10" x="108" y="12" rx="2" ry="2" style="fill: rgb(161, 52, 3);"></rect></g><g><rect class="ch-subdomain-bg" width="10" height="10" x="108" y="24" rx="2" ry="2" style="fill: rgb(135, 42, 4);"></rect></g><g><rect class="ch-subdomain-bg" width="10" height="10" x="108" y="36" rx="2" ry="2" style="fill: rgb(160, 52, 3);"></rect></g><g><rect class="ch-subdomain-bg" width="10" height="10" x="108" y="48" rx="2" ry="2" style="fill: rgb(229, 90, 12);"></rect></g><g><rect class="ch-subdomain-bg" width="10" height="10" x="108" y="60" rx="2" ry="2" style="fill: rgb(253, 189, 132);"></rect></g><g><rect class="ch-subdomain-bg" width="10" height="10" x="108" y="72" rx="2" ry="2" style="fill: rgb(251, 141, 61);"></rect></g><g><rect class="ch-subdomain-bg" width="10" height="10" x="120" y="0" rx="2" ry="2" style="fill: rgb(253, 214, 175);"></rect></g><g><rect class="ch-subdomain-bg" width="10" height="10" x="120" y="12" rx="2" ry="2" style="fill: rgb(226, 86, 9);"></rect></g><g><rect class="ch-subdomain-bg" width="10" height="10" x="120" y="24" rx="2" ry="2" style="fill: rgb(228, 89, 11);"></rect></g><g><rect class="ch-subdomain-bg" width="10" height="10" x="120" y="36" rx="2" ry="2" style="fill: rgb(229, 90, 12);"></rect></g><g><rect class="ch-subdomain-bg" width="10" height="10" x="120" y="48" rx="2" ry="2" style="fill: rgb(227, 88, 10);"></rect></g><g><rect class="ch-subdomain-bg" width="10" height="10" x="120" y="60" rx="2" ry="2" style="fill: rgb(253, 159, 86);"></rect></g><g><rect class="ch-subdomain-bg" width="10" height="10" x="120" y="72" rx="2" ry="2" style="fill: rgb(255, 245, 235);"></rect></g><g><rect class="ch-subdomain-bg" width="10" height="10" x="132" y="0" rx="2" ry="2" style="fill: rgb(251, 140, 60);"></rect></g><g><rect class="ch-subdomain-bg" width="10" height="10" x="132" y="12" rx="2" ry="2" style="fill: rgb(127, 39, 4);"></rect></g><g><rect class="ch-subdomain-bg" width="10" height="10" x="132" y="24" rx="2" ry="2" style="fill: rgb(254, 219, 184);"></rect></g><g><rect class="ch-subdomain-bg" width="10" height="10" x="132" y="36" rx="2" ry="2" style="fill: rgb(231, 92, 13);"></rect></g><g><rect class="ch-subdomain-bg" width="10" height="10" x="132" y="48" rx="2" ry="2" style="fill: rgb(193, 64, 2);"></rect></g><g><rect class="ch-subdomain-bg" width="10" height="10" x="132" y="60" rx="2" ry="2" style="fill: rgb(127, 39, 4);"></rect></g><g><rect class="ch-subdomain-bg" width="10" height="10" x="132" y="72" rx="2" ry="2" style="fill: rgb(255, 245, 235);"></rect></g><g><rect class="ch-subdomain-bg" width="10" height="10" x="144" y="0" rx="2" ry="2" style="fill: rgb(255, 245, 235);"></rect></g><g><rect class="ch-subdomain-bg" width="10" height="10" x="144" y="12" rx="2" ry="2" style="fill: rgb(212, 74, 4);"></rect></g><g><rect class="ch-subdomain-bg" width="10" height="10" x="144" y="24" rx="2" ry="2" style="fill: rgb(233, 96, 15);"></rect></g><g><rect class="ch-subdomain-bg" width="10" height="10" x="144" y="36" rx="2" ry="2" style="fill: rgb(127, 39, 4);"></rect></g><g><rect class="ch-subdomain-bg" width="10" height="10" x="144" y="48" rx="2" ry="2" style="fill: rgb(253, 213, 173);"></rect></g><g><rect class="ch-subdomain-bg" width="10" height="10" x="144" y="60" rx="2" ry="2" style="fill: rgb(253, 200, 150);"></rect></g><g><rect class="ch-subdomain-bg" width="10" height="10" x="144" y="72" rx="2" ry="2" style="fill: rgb(251, 141, 61);"></rect></g><g><rect class="ch-subdomain-bg" width="10" height="10" x="156" y="0" rx="2" ry="2" style="fill: rgb(253, 176, 112);"></rect></g><g><rect class="ch-subdomain-bg" width="10" height="10" x="156" y="12" rx="2" ry="2" style="fill: rgb(253, 214, 175);"></rect></g><g><rect class="ch-subdomain-bg" width="10" height="10" x="156" y="24" rx="2" ry="2" style="fill: rgb(137, 43, 4);"></rect></g><g><rect class="ch-subdomain-bg" width="10" height="10" x="156" y="36" rx="2" ry="2" style="fill: rgb(253, 184, 123);"></rect></g><g><rect class="ch-subdomain-bg" width="10" height="10" x="156" y="48" rx="2" ry="2" style="fill: rgb(255, 245, 235);"></rect></g><g><rect class="ch-subdomain-bg" width="10" height="10" x="156" y="60" rx="2" ry="2" style="fill: rgb(252, 151, 75);"></rect></g><g><rect class="ch-subdomain-bg" width="10" height="10" x="156" y="72" rx="2" ry="2" style="fill: rgb(254, 230, 205);"></rect></g><g><rect class="ch-subdomain-bg" width="10" height="10" x="168" y="0" rx="2" ry="2" style="fill: rgb(251, 138, 58);"></rect></g><g><rect class="ch-subdomain-bg" width="10" height="10" x="168" y="12" rx="2" ry="2" style="fill: rgb(254, 235, 215);"></rect></g><g><rect class="ch-subdomain-bg" width="10" height="10" x="168" y="24" rx="2" ry="2" style="fill: rgb(255, 245, 235);"></rect></g><g><rect class="ch-subdomain-bg" width="10" height="10" x="168" y="36" rx="2" ry="2" style="fill: rgb(232, 94, 14);"></rect></g><g><rect class="ch-subdomain-bg" width="10" height="10" x="168" y="48" rx="2" ry="2" style="fill: rgb(253, 188, 130);"></rect></g><g><rect class="ch-subdomain-bg" width="10" height="10" x="168" y="60" rx="2" ry="2" style="fill: rgb(253, 161, 89);"></rect></g><g><rect class="ch-subdomain-bg" width="10" height="10" x="168" y="72" rx="2" ry="2" style="fill: rgb(199, 67, 3);"></rect></g><g><rect class="ch-subdomain-bg" width="10" height="10" x="180" y="0" rx="2" ry="2" style="fill: rgb(251, 141, 62);"></rect></g><g><rect class="ch-subdomain-bg" width="10" height="10" x="180" y="12" rx="2" ry="2" style="fill: rgb(255, 245, 235);"></rect></g><g><rect class="ch-subdomain-bg" width="10" height="10" x="180" y="24" rx="2" ry="2" style="fill: rgb(127, 39, 4);"></rect></g><g><rect class="ch-subdomain-bg" width="10" height="10" x="180" y="36" rx="2" ry="2" style="fill: rgb(232, 94, 14);"></rect></g><g><rect class="ch-subdomain-bg" width="10" height="10" x="180" y="48" rx="2" ry="2" style="fill: rgb(253, 162, 91);"></rect></g><g><rect class="ch-subdomain-bg" width="10" height="10" x="180" y="60" rx="2" ry="2" style="fill: rgb(253, 173, 107);"></rect></g><g><rect class="ch-subdomain-bg" width="10" height="10" x="180" y="72" rx="2" ry="2" style="fill: rgb(253, 194, 140);"></rect></g><g><rect class="ch-subdomain-bg" width="10" height="10" x="192" y="0" rx="2" ry="2" style="fill: rgb(166, 54, 3);"></rect></g><g><rect class="ch-subdomain-bg" width="10" height="10" x="192" y="12" rx="2" ry="2" style="fill: rgb(127, 39, 4);"></rect></g><g><rect class="ch-subdomain-bg" width="10" height="10" x="192" y="24" rx="2" ry="2" style="fill: rgb(254, 228, 203);"></rect></g><g><rect class="ch-subdomain-bg" width="10" height="10" x="192" y="36" rx="2" ry="2" style="fill: rgb(222, 82, 7);"></rect></g><g><rect class="ch-subdomain-bg" width="10" height="10" x="192" y="48" rx="2" ry="2" style="fill: rgb(253, 216, 179);"></rect></g><g><rect class="ch-subdomain-bg" width="10" height="10" x="192" y="60" rx="2" ry="2" style="fill: rgb(222, 82, 7);"></rect></g><g><rect class="ch-subdomain-bg" width="10" height="10" x="192" y="72" rx="2" ry="2" style="fill: rgb(255, 240, 226);"></rect></g><g><rect class="ch-subdomain-bg" width="10" height="10" x="204" y="0" rx="2" ry="2" style="fill: rgb(235, 99, 17);"></rect></g><g><rect class="ch-subdomain-bg" width="10" height="10" x="204" y="12" rx="2" ry="2" style="fill: rgb(204, 69, 3);"></rect></g><g><rect class="ch-subdomain-bg" width="10" height="10" x="204" y="24" rx="2" ry="2" style="fill: rgb(253, 166, 96);"></rect></g><g><rect class="ch-subdomain-bg" width="10" height="10" x="204" y="36" rx="2" ry="2" style="fill: rgb(255, 245, 235);"></rect></g><g><rect class="ch-subdomain-bg" width="10" height="10" x="204" y="48" rx="2" ry="2" style="fill: rgb(252, 147, 70);"></rect></g><g><rect class="ch-subdomain-bg" width="10" height="10" x="204" y="60" rx="2" ry="2" style="fill: rgb(168, 55, 3);"></rect></g><g><rect class="ch-subdomain-bg" width="10" height="10" x="204" y="72" rx="2" ry="2" style="fill: rgb(182, 60, 2);"></rect></g><g><rect class="ch-subdomain-bg" width="10" height="10" x="216" y="0" rx="2" ry="2" style="fill: rgb(141, 44, 4);"></rect></g><g><rect class="ch-subdomain-bg" width="10" height="10" x="216" y="12" rx="2" ry="2" style="fill: rgb(127, 39, 4);"></rect></g><g><rect class="ch-subdomain-bg" width="10" height="10" x="216" y="24" rx="2" ry="2" style="fill: rgb(127, 39, 4);"></rect></g><g><rect class="ch-subdomain-bg" width="10" height="10" x="216" y="36" rx="2" ry="2" style="fill: rgb(127, 39, 4);"></rect></g><g><rect class="ch-subdomain-bg" width="10" height="10" x="216" y="48" rx="2" ry="2" style="fill: rgb(143, 45, 4);"></rect></g><g><rect class="ch-subdomain-bg" width="10" height="10" x="216" y="60" rx="2" ry="2" style="fill: rgb(147, 47, 3);"></rect></g><g><rect class="ch-subdomain-bg" width="10" height="10" x="216" y="72" rx="2" ry="2" style="fill: rgb(255, 245, 235);"></rect></g><g><rect class="ch-subdomain-bg" width="10" height="10" x="228" y="0" rx="2" ry="2" style="fill: rgb(255, 245, 235);"></rect></g><g><rect class="ch-subdomain-bg" width="10" height="10" x="228" y="12" rx="2" ry="2" style="fill: rgb(231, 93, 13);"></rect></g><g><rect class="ch-subdomain-bg" width="10" height="10" x="228" y="24" rx="2" ry="2" style="fill: rgb(255, 245, 235);"></rect></g><g><rect class="ch-subdomain-bg" width="10" height="10" x="228" y="36" rx="2" ry="2" style="fill: rgb(253, 199, 148);"></rect></g><g><rect class="ch-subdomain-bg" width="10" height="10" x="228" y="48" rx="2" ry="2" style="fill: rgb(255, 245, 235);"></rect></g><g><rect class="ch-subdomain-bg" width="10" height="10" x="228" y="60" rx="2" ry="2" style="fill: rgb(253, 181, 119);"></rect></g><g><rect class="ch-subdomain-bg" width="10" height="10" x="228" y="72" rx="2" ry="2" style="fill: rgb(255, 245, 235);"></rect></g><g><rect class="ch-subdomain-bg" width="10" height="10" x="240" y="0" rx="2" ry="2" style="fill: rgb(254, 230, 206);"></rect></g><g><rect class="ch-subdomain-bg" width="10" height="10" x="240" y="12" rx="2" ry="2" style="fill: rgb(253, 209, 166);"></rect></g><g><rect class="ch-subdomain-bg" width="10" height="10" x="240" y="24" rx="2" ry="2" style="fill: rgb(255, 245, 235);"></rect></g><g><rect class="ch-subdomain-bg" width="10" height="10" x="240" y="36" rx="2" ry="2" style="fill: rgb(127, 39, 4);"></rect></g><g><rect class="ch-subdomain-bg" width="10" height="10" x="240" y="48" rx="2" ry="2" style="fill: rgb(127, 39, 4);"></rect></g><g><rect class="ch-subdomain-bg" width="10" height="10" x="240" y="60" rx="2" ry="2" style="fill: rgb(253, 156, 82);"></rect></g><g><rect class="ch-subdomain-bg" width="10" height="10" x="240" y="72" rx="2" ry="2" style="fill: rgb(255, 245, 235);"></rect></g><g><rect class="ch-subdomain-bg" width="10" height="10" x="252" y="0" rx="2" ry="2" style="fill: rgb(254, 222, 191);"></rect></g><g><rect class="ch-subdomain-bg" width="10" height="10" x="252" y="12" rx="2" ry="2" style="fill: rgb(127, 39, 4);"></rect></g><g><rect class="ch-subdomain-bg" width="10" height="10" x="252" y="24" rx="2" ry="2" style="fill: rgb(255, 245, 235);"></rect></g><g><rect class="ch-subdomain-bg" width="10" height="10" x="252" y="36" rx="2" ry="2" style="fill: rgb(239, 106, 23);"></rect></g><g><rect class="ch-subdomain-bg" width="10" height="10" x="252" y="48" rx="2" ry="2" style="fill: rgb(253, 173, 106);"></rect></g><g><rect class="ch-subdomain-bg" width="10" height="10" x="252" y="60" rx="2" ry="2" style="fill: rgb(250, 136, 55);"></rect></g><g><rect class="ch-subdomain-bg" width="10" height="10" x="252" y="72" rx="2" ry="2" style="fill: rgb(253, 181, 119);"></rect></g><g><rect class="ch-subdomain-bg" width="10" height="10" x="264" y="0" rx="2" ry="2" style="fill: rgb(253, 209, 166);"></rect></g><g><rect class="ch-subdomain-bg" width="10" height="10" x="264" y="12" rx="2" ry="2" style="fill: rgb(253, 181, 119);"></rect></g><g><rect class="ch-subdomain-bg" width="10" height="10" x="264" y="24" rx="2" ry="2" style="fill: rgb(236, 100, 19);"></rect></g><g><rect class="ch-subdomain-bg" width="10" height="10" x="264" y="36" rx="2" ry="2" style="fill: rgb(232, 94, 14);"></rect></g><g><rect class="ch-subdomain-bg" width="10" height="10" x="264" y="48" rx="2" ry="2" style="fill: rgb(253, 218, 182);"></rect></g><g><rect class="ch-subdomain-bg" width="10" height="10" x="264" y="60" rx="2" ry="2" style="fill: rgb(250, 134, 52);"></rect></g><g><rect class="ch-subdomain-bg" width="10" height="10" x="264" y="72" rx="2" ry="2" style="fill: rgb(253, 196, 143);"></rect></g><g><rect class="ch-subdomain-bg" width="10" height="10" x="276" y="0" rx="2" ry="2" style="fill: rgb(255, 242, 230);"></rect></g><g><rect class="ch-subdomain-bg" width="10" height="10" x="276" y="12" rx="2" ry="2" style="fill: rgb(248, 129, 47);"></rect></g><g><rect class="ch-subdomain-bg" width="10" height="10" x="276" y="24" rx="2" ry="2" style="fill: rgb(255, 239, 223);"></rect></g><g><rect class="ch-subdomain-bg" width="10" height="10" x="276" y="36" rx="2" ry="2" style="fill: rgb(237, 102, 20);"></rect></g><g><rect class="ch-subdomain-bg" width="10" height="10" x="276" y="48" rx="2" ry="2" style="fill: rgb(236, 100, 19);"></rect></g><g><rect class="ch-subdomain-bg" width="10" height="10" x="276" y="60" rx="2" ry="2" style="fill: rgb(253, 181, 119);"></rect></g><g><rect class="ch-subdomain-bg" width="10" height="10" x="276" y="72" rx="2" ry="2" style="fill: rgb(255, 245, 235);"></rect></g><g><rect class="ch-subdomain-bg" width="10" height="10" x="288" y="0" rx="2" ry="2" style="fill: rgb(255, 245, 235);"></rect></g><g><rect class="ch-subdomain-bg" width="10" height="10" x="288" y="12" rx="2" ry="2" style="fill: rgb(127, 39, 4);"></rect></g><g><rect class="ch-subdomain-bg" width="10" height="10" x="288" y="24" rx="2" ry="2" style="fill: rgb(253, 200, 149);"></rect></g><g><rect class="ch-subdomain-bg" width="10" height="10" x="288" y="36" rx="2" ry="2" style="fill: rgb(234, 97, 16);"></rect></g><g><rect class="ch-subdomain-bg" width="10" height="10" x="288" y="48" rx="2" ry="2" style="fill: rgb(253, 216, 179);"></rect></g><g><rect class="ch-subdomain-bg" width="10" height="10" x="288" y="60" rx="2" ry="2" style="fill: rgb(253, 193, 137);"></rect></g><g><rect class="ch-subdomain-bg" width="10" height="10" x="288" y="72" rx="2" ry="2" style="fill: rgb(246, 123, 40);"></rect></g><g><rect class="ch-subdomain-bg" width="10" height="10" x="300" y="0" rx="2" ry="2" style="fill: rgb(255, 245, 235);"></rect></g><g><rect class="ch-subdomain-bg" width="10" height="10" x="300" y="12" rx="2" ry="2" style="fill: rgb(127, 39, 4);"></rect></g><g><rect class="ch-subdomain-bg" width="10" height="10" x="300" y="24" rx="2" ry="2" style="fill: rgb(254, 230, 205);"></rect></g><g><rect class="ch-subdomain-bg" width="10" height="10" x="300" y="36" rx="2" ry="2" style="fill: rgb(233, 95, 15);"></rect></g><g><rect class="ch-subdomain-bg" width="10" height="10" x="300" y="48" rx="2" ry="2" style="fill: rgb(253, 157, 83);"></rect></g><g><rect class="ch-subdomain-bg" width="10" height="10" x="300" y="60" rx="2" ry="2" style="fill: rgb(251, 139, 59);"></rect></g><g><rect class="ch-subdomain-bg" width="10" height="10" x="300" y="72" rx="2" ry="2" style="fill: rgb(253, 156, 81);"></rect></g><g><rect class="ch-subdomain-bg" width="10" height="10" x="312" y="0" rx="2" ry="2" style="fill: rgb(205, 70, 3);"></rect></g><g><rect class="ch-subdomain-bg" width="10" height="10" x="312" y="12" rx="2" ry="2" style="fill: rgb(252, 148, 71);"></rect></g><g><rect class="ch-subdomain-bg" width="10" height="10" x="312" y="24" rx="2" ry="2" style="fill: rgb(127, 39, 4);"></rect></g><g><rect class="ch-subdomain-bg" width="10" height="10" x="312" y="36" rx="2" ry="2" style="fill: rgb(244, 117, 34);"></rect></g><g><rect class="ch-subdomain-bg" width="10" height="10" x="312" y="48" rx="2" ry="2" style="fill: rgb(253, 198, 147);"></rect></g><g><rect class="ch-subdomain-bg" width="10" height="10" x="312" y="60" rx="2" ry="2" style="fill: rgb(127, 39, 4);"></rect></g><g><rect class="ch-subdomain-bg" width="10" height="10" x="312" y="72" rx="2" ry="2" style="fill: rgb(255, 245, 235);"></rect></g><g><rect class="ch-subdomain-bg" width="10" height="10" x="324" y="0" rx="2" ry="2" style="fill: rgb(209, 72, 4);"></rect></g><g><rect class="ch-subdomain-bg" width="10" height="10" x="324" y="12" rx="2" ry="2" style="fill: rgb(230, 91, 12);"></rect></g><g><rect class="ch-subdomain-bg" width="10" height="10" x="324" y="24" rx="2" ry="2" style="fill: rgb(127, 39, 4);"></rect></g><g><rect class="ch-subdomain-bg" width="10" height="10" x="324" y="36" rx="2" ry="2" style="fill: rgb(138, 43, 4);"></rect></g><g><rect class="ch-subdomain-bg" width="10" height="10" x="324" y="48" rx="2" ry="2" style="fill: rgb(164, 53, 3);"></rect></g><g><rect class="ch-subdomain-bg" width="10" height="10" x="324" y="60" rx="2" ry="2" style="fill: rgb(232, 94, 14);"></rect></g><g><rect class="ch-subdomain-bg" width="10" height="10" x="324" y="72" rx="2" ry="2" style="fill: rgb(183, 60, 2);"></rect></g><g><rect class="ch-subdomain-bg" width="10" height="10" x="336" y="0" rx="2" ry="2" style="fill: rgb(224, 84, 8);"></rect></g><g><rect class="ch-subdomain-bg" width="10" height="10" x="336" y="12" rx="2" ry="2" style="fill: rgb(253, 209, 166);"></rect></g><g><rect class="ch-subdomain-bg" width="10" height="10" x="336" y="24" rx="2" ry="2" style="fill: rgb(253, 205, 158);"></rect></g><g><rect class="ch-subdomain-bg" width="10" height="10" x="336" y="36" rx="2" ry="2" style="fill: rgb(232, 94, 14);"></rect></g><g><rect class="ch-subdomain-bg" width="10" height="10" x="336" y="48" rx="2" ry="2" style="fill: rgb(255, 245, 235);"></rect></g><g><rect class="ch-subdomain-bg" width="10" height="10" x="336" y="60" rx="2" ry="2" style="fill: rgb(230, 91, 12);"></rect></g><g><rect class="ch-subdomain-bg" width="10" height="10" x="336" y="72" rx="2" ry="2" style="fill: rgb(254, 219, 184);"></rect></g><g><rect class="ch-subdomain-bg" width="10" height="10" x="348" y="0" rx="2" ry="2" style="fill: rgb(250, 137, 56);"></rect></g><g><rect class="ch-subdomain-bg" width="10" height="10" x="348" y="12" rx="2" ry="2" style="fill: rgb(155, 50, 3);"></rect></g><g><rect class="ch-subdomain-bg" width="10" height="10" x="348" y="24" rx="2" ry="2" style="fill: rgb(252, 150, 73);"></rect></g><g><rect class="ch-subdomain-bg" width="10" height="10" x="348" y="36" rx="2" ry="2" style="fill: rgb(253, 178, 114);"></rect></g><g><rect class="ch-subdomain-bg" width="10" height="10" x="348" y="48" rx="2" ry="2" style="fill: rgb(134, 42, 4);"></rect></g><g><rect class="ch-subdomain-bg" width="10" height="10" x="348" y="60" rx="2" ry="2" style="fill: rgb(253, 181, 119);"></rect></g><g><rect class="ch-subdomain-bg" width="10" height="10" x="348" y="72" rx="2" ry="2" style="fill: rgb(251, 141, 61);"></rect></g><g><rect class="ch-subdomain-bg" width="10" height="10" x="360" y="0" rx="2" ry="2" style="fill: rgb(240, 108, 25);"></rect></g><g><rect class="ch-subdomain-bg" width="10" height="10" x="360" y="12" rx="2" ry="2" style="fill: rgb(254, 227, 200);"></rect></g><g><rect class="ch-subdomain-bg" width="10" height="10" x="360" y="24" rx="2" ry="2" style="fill: rgb(128, 39, 4);"></rect></g><g><rect class="ch-subdomain-bg" width="10" height="10" x="360" y="36" rx="2" ry="2" style="fill: rgb(127, 39, 4);"></rect></g><g><rect class="ch-subdomain-bg" width="10" height="10" x="360" y="48" rx="2" ry="2" style="fill: rgb(209, 72, 4);"></rect></g><g><rect class="ch-subdomain-bg" width="10" height="10" x="360" y="60" rx="2" ry="2" style="fill: rgb(144, 45, 4);"></rect></g><g><rect class="ch-subdomain-bg" width="10" height="10" x="360" y="72" rx="2" ry="2" style="fill: rgb(253, 213, 173);"></rect></g><g><rect class="ch-subdomain-bg" width="10" height="10" x="372" y="0" rx="2" ry="2" style="fill: rgb(251, 141, 61);"></rect></g><g><rect class="ch-subdomain-bg" width="10" height="10" x="372" y="12" rx="2" ry="2" style="fill: rgb(137, 43, 4);"></rect></g><g><rect class="ch-subdomain-bg" width="10" height="10" x="372" y="24" rx="2" ry="2" style="fill: rgb(127, 39, 4);"></rect></g><g><rect class="ch-subdomain-bg" width="10" height="10" x="372" y="36" rx="2" ry="2" style="fill: rgb(253, 193, 139);"></rect></g><g><rect class="ch-subdomain-bg" width="10" height="10" x="372" y="48" rx="2" ry="2" style="fill: rgb(127, 39, 4);"></rect></g><g><rect class="ch-subdomain-bg" width="10" height="10" x="372" y="60" rx="2" ry="2" style="fill: rgb(212, 74, 4);"></rect></g><g><rect class="ch-subdomain-bg" width="10" height="10" x="372" y="72" rx="2" ry="2" style="fill: rgb(236, 101, 19);"></rect></g><g><rect class="ch-subdomain-bg" width="10" height="10" x="384" y="0" rx="2" ry="2" style="fill: rgb(255, 245, 235);"></rect></g><g><rect class="ch-subdomain-bg" width="10" height="10" x="384" y="12" rx="2" ry="2" style="fill: rgb(253, 183, 122);"></rect></g><g><rect class="ch-subdomain-bg" width="10" height="10" x="384" y="24" rx="2" ry="2" style="fill: rgb(232, 94, 14);"></rect></g><g><rect class="ch-subdomain-bg" width="10" height="10" x="384" y="36" rx="2" ry="2" style="fill: rgb(202, 68, 3);"></rect></g><g><rect class="ch-subdomain-bg" width="10" height="10" x="384" y="48" rx="2" ry="2" style="fill: rgb(253, 197, 145);"></rect></g><g><rect class="ch-subdomain-bg" width="10" height="10" x="384" y="60" rx="2" ry="2" style="fill: rgb(253, 210, 168);"></rect></g><g><rect class="ch-subdomain-bg" width="10" height="10" x="384" y="72" rx="2" ry="2" style="fill: rgb(255, 245, 235);"></rect></g><g><rect class="ch-subdomain-bg" width="10" height="10" x="396" y="0" rx="2" ry="2" style="fill: rgb(183, 60, 2);"></rect></g><g><rect class="ch-subdomain-bg" width="10" height="10" x="396" y="12" rx="2" ry="2" style="fill: rgb(253, 193, 139);"></rect></g><g><rect class="ch-subdomain-bg" width="10" height="10" x="396" y="24" rx="2" ry="2" style="fill: rgb(253, 193, 139);"></rect></g><g><rect class="ch-subdomain-bg" width="10" height="10" x="396" y="36" rx="2" ry="2" style="fill: rgb(253, 179, 116);"></rect></g><g><rect class="ch-subdomain-bg" width="10" height="10" x="396" y="48" rx="2" ry="2" style="fill: rgb(250, 135, 54);"></rect></g><g><rect class="ch-subdomain-bg" width="10" height="10" x="396" y="60" rx="2" ry="2" style="fill: rgb(255, 245, 235);"></rect></g><g><rect class="ch-subdomain-bg" width="10" height="10" x="396" y="72" rx="2" ry="2" style="fill: rgb(215, 76, 5);"></rect></g><g><rect class="ch-subdomain-bg" width="10" height="10" x="408" y="0" rx="2" ry="2" style="fill: rgb(128, 39, 4);"></rect></g><g><rect class="ch-subdomain-bg" width="10" height="10" x="408" y="12" rx="2" ry="2" style="fill: rgb(253, 212, 171);"></rect></g><g><rect class="ch-subdomain-bg" width="10" height="10" x="408" y="24" rx="2" ry="2" style="fill: rgb(253, 170, 103);"></rect></g><g><rect class="ch-subdomain-bg" width="10" height="10" x="408" y="36" rx="2" ry="2" style="fill: rgb(249, 130, 49);"></rect></g><g><rect class="ch-subdomain-bg" width="10" height="10" x="408" y="48" rx="2" ry="2" style="fill: rgb(253, 197, 145);"></rect></g><g><rect class="ch-subdomain-bg" width="10" height="10" x="408" y="60" rx="2" ry="2" style="fill: rgb(255, 244, 233);"></rect></g><g><rect class="ch-subdomain-bg" width="10" height="10" x="408" y="72" rx="2" ry="2" style="fill: rgb(255, 245, 235);"></rect></g><g><rect class="ch-subdomain-bg" width="10" height="10" x="420" y="0" rx="2" ry="2" style="fill: rgb(253, 163, 92);"></rect></g><g><rect class="ch-subdomain-bg" width="10" height="10" x="420" y="12" rx="2" ry="2" style="fill: rgb(248, 127, 45);"></rect></g><g><rect class="ch-subdomain-bg" width="10" height="10" x="420" y="24" rx="2" ry="2" style="fill: rgb(253, 180, 118);"></rect></g><g><rect class="ch-subdomain-bg" width="10" height="10" x="420" y="36" rx="2" ry="2" style="fill: rgb(161, 52, 3);"></rect></g><g><rect class="ch-subdomain-bg" width="10" height="10" x="420" y="48" rx="2" ry="2" style="fill: rgb(182, 60, 2);"></rect></g><g><rect class="ch-subdomain-bg" width="10" height="10" x="420" y="60" rx="2" ry="2" style="fill: rgb(255, 243, 231);"></rect></g><g><rect class="ch-subdomain-bg" width="10" height="10" x="420" y="72" rx="2" ry="2" style="fill: rgb(254, 230, 207);"></rect></g><g><rect class="ch-subdomain-bg" width="10" height="10" x="432" y="0" rx="2" ry="2" style="fill: rgb(255, 245, 235);"></rect></g><g><rect class="ch-subdomain-bg" width="10" height="10" x="432" y="12" rx="2" ry="2" style="fill: rgb(255, 245, 235);"></rect></g><g><rect class="ch-subdomain-bg" width="10" height="10" x="432" y="24" rx="2" ry="2" style="fill: rgb(253, 218, 182);"></rect></g><g><rect class="ch-subdomain-bg" width="10" height="10" x="432" y="36" rx="2" ry="2" style="fill: rgb(253, 216, 179);"></rect></g><g><rect class="ch-subdomain-bg" width="10" height="10" x="432" y="48" rx="2" ry="2" style="fill: rgb(253, 211, 169);"></rect></g><g><rect class="ch-subdomain-bg" width="10" height="10" x="432" y="60" rx="2" ry="2" style="fill: rgb(254, 225, 197);"></rect></g><g><rect class="ch-subdomain-bg" width="10" height="10" x="432" y="72" rx="2" ry="2" style="fill: rgb(232, 94, 14);"></rect></g><g><rect class="ch-subdomain-bg" width="10" height="10" x="444" y="0" rx="2" ry="2" style="fill: rgb(255, 245, 235);"></rect></g><g><rect class="ch-subdomain-bg" width="10" height="10" x="444" y="12" rx="2" ry="2" style="fill: rgb(251, 141, 61);"></rect></g><g><rect class="ch-subdomain-bg" width="10" height="10" x="444" y="24" rx="2" ry="2" style="fill: rgb(127, 39, 4);"></rect></g><g><rect class="ch-subdomain-bg" width="10" height="10" x="444" y="36" rx="2" ry="2" style="fill: rgb(127, 39, 4);"></rect></g><g><rect class="ch-subdomain-bg" width="10" height="10" x="444" y="48" rx="2" ry="2" style="fill: rgb(254, 221, 189);"></rect></g><g><rect class="ch-subdomain-bg" width="10" height="10" x="444" y="60" rx="2" ry="2" style="fill: rgb(253, 183, 122);"></rect></g><g><rect class="ch-subdomain-bg" width="10" height="10" x="444" y="72" rx="2" ry="2" style="fill: rgb(254, 221, 188);"></rect></g><g><rect class="ch-subdomain-bg" width="10" height="10" x="456" y="0" rx="2" ry="2" style="fill: rgb(251, 140, 60);"></rect></g><g><rect class="ch-subdomain-bg" width="10" height="10" x="456" y="12" rx="2" ry="2" style="fill: rgb(168, 55, 3);"></rect></g><g><rect class="ch-subdomain-bg" width="10" height="10" x="456" y="24" rx="2" ry="2" style="fill: rgb(127, 39, 4);"></rect></g><g><rect class="ch-subdomain-bg" width="10" height="10" x="456" y="36" rx="2" ry="2" style="fill: rgb(127, 39, 4);"></rect></g><g><rect class="ch-subdomain-bg" width="10" height="10" x="456" y="48" rx="2" ry="2" style="fill: rgb(253, 165, 94);"></rect></g><g><rect class="ch-subdomain-bg" width="10" height="10" x="456" y="60" rx="2" ry="2" style="fill: rgb(134, 42, 4);"></rect></g><g><rect class="ch-subdomain-bg" width="10" height="10" x="456" y="72" rx="2" ry="2" style="fill: rgb(251, 138, 58);"></rect></g><g><rect class="ch-subdomain-bg" width="10" height="10" x="468" y="0" rx="2" ry="2" style="fill: rgb(220, 81, 7);"></rect></g><g><rect class="ch-subdomain-bg" width="10" height="10" x="468" y="12" rx="2" ry="2" style="fill: rgb(127, 39, 4);"></rect></g><g><rect class="ch-subdomain-bg" width="10" height="10" x="468" y="24" rx="2" ry="2" style="fill: rgb(253, 192, 136);"></rect></g><g><rect class="ch-subdomain-bg" width="10" height="10" x="468" y="36" rx="2" ry="2" style="fill: rgb(225, 85, 9);"></rect></g><g><rect class="ch-subdomain-bg" width="10" height="10" x="468" y="48" rx="2" ry="2" style="fill: rgb(255, 245, 235);"></rect></g><g><rect class="ch-subdomain-bg" width="10" height="10" x="468" y="60" rx="2" ry="2" style="fill: rgb(255, 245, 235);"></rect></g><g><rect class="ch-subdomain-bg" width="10" height="10" x="468" y="72" rx="2" ry="2" style="fill: rgb(255, 245, 235);"></rect></g><g><rect class="ch-subdomain-bg" width="10" height="10" x="480" y="0" rx="2" ry="2" style="fill: rgb(255, 245, 235);"></rect></g><g><rect class="ch-subdomain-bg" width="10" height="10" x="480" y="12" rx="2" ry="2" style="fill: rgb(255, 245, 235);"></rect></g><g><rect class="ch-subdomain-bg" width="10" height="10" x="480" y="24" rx="2" ry="2" style="fill: rgb(255, 245, 235);"></rect></g><g><rect class="ch-subdomain-bg" width="10" height="10" x="480" y="36" rx="2" ry="2" style="fill: rgb(208, 72, 4);"></rect></g><g><rect class="ch-subdomain-bg" width="10" height="10" x="480" y="48" rx="2" ry="2" style="fill: rgb(253, 197, 144);"></rect></g><g><rect class="ch-subdomain-bg" width="10" height="10" x="480" y="60" rx="2" ry="2" style="fill: rgb(253, 215, 176);"></rect></g><g><rect class="ch-subdomain-bg" width="10" height="10" x="480" y="72" rx="2" ry="2" style="fill: rgb(254, 228, 203);"></rect></g><g><rect class="ch-subdomain-bg" width="10" height="10" x="492" y="0" rx="2" ry="2" style="fill: rgb(254, 235, 215);"></rect></g><g><rect class="ch-subdomain-bg" width="10" height="10" x="492" y="12" rx="2" ry="2" style="fill: rgb(253, 199, 148);"></rect></g><g><rect class="ch-subdomain-bg" width="10" height="10" x="492" y="24" rx="2" ry="2" style="fill: rgb(172, 56, 3);"></rect></g><g><rect class="ch-subdomain-bg" width="10" height="10" x="492" y="36" rx="2" ry="2" style="fill: rgb(253, 188, 130);"></rect></g><g><rect class="ch-subdomain-bg" width="10" height="10" x="492" y="48" rx="2" ry="2" style="fill: rgb(253, 194, 140);"></rect></g><g><rect class="ch-subdomain-bg" width="10" height="10" x="492" y="60" rx="2" ry="2" style="fill: rgb(255, 245, 235);"></rect></g><g><rect class="ch-subdomain-bg" width="10" height="10" x="492" y="72" rx="2" ry="2" style="fill: rgb(251, 142, 63);"></rect></g><g><rect class="ch-subdomain-bg" width="10" height="10" x="504" y="0" rx="2" ry="2" style="fill: rgb(253, 208, 163);"></rect></g><g><rect class="ch-subdomain-bg" width="10" height="10" x="504" y="12" rx="2" ry="2" style="fill: rgb(127, 39, 4);"></rect></g><g><rect class="ch-subdomain-bg" width="10" height="10" x="504" y="24" rx="2" ry="2" style="fill: rgb(127, 39, 4);"></rect></g><g><rect class="ch-subdomain-bg" width="10" height="10" x="504" y="36" rx="2" ry="2" style="fill: rgb(254, 228, 203);"></rect></g><g><rect class="ch-subdomain-bg" width="10" height="10" x="504" y="48" rx="2" ry="2" style="fill: rgb(127, 39, 4);"></rect></g><g><rect class="ch-subdomain-bg" width="10" height="10" x="504" y="60" rx="2" ry="2" style="fill: rgb(204, 69, 3);"></rect></g><g><rect class="ch-subdomain-bg" width="10" height="10" x="504" y="72" rx="2" ry="2" style="fill: rgb(137, 43, 4);"></rect></g><g><rect class="ch-subdomain-bg" width="10" height="10" x="516" y="0" rx="2" ry="2" style="fill: rgb(227, 88, 10);"></rect></g><g><rect class="ch-subdomain-bg" width="10" height="10" x="516" y="12" rx="2" ry="2" style="fill: rgb(253, 171, 104);"></rect></g><g><rect class="ch-subdomain-bg" width="10" height="10" x="516" y="24" rx="2" ry="2" style="fill: rgb(127, 39, 4);"></rect></g><g><rect class="ch-subdomain-bg" width="10" height="10" x="516" y="36" rx="2" ry="2" style="fill: rgb(255, 245, 235);"></rect></g><g><rect class="ch-subdomain-bg" width="10" height="10" x="516" y="48" rx="2" ry="2" style="fill: rgb(251, 141, 61);"></rect></g><g><rect class="ch-subdomain-bg" width="10" height="10" x="516" y="60" rx="2" ry="2" style="fill: rgb(253, 176, 112);"></rect></g><g><rect class="ch-subdomain-bg" width="10" height="10" x="516" y="72" rx="2" ry="2" style="fill: rgb(252, 150, 74);"></rect></g><g><rect class="ch-subdomain-bg" width="10" height="10" x="528" y="0" rx="2" ry="2" style="fill: rgb(246, 123, 40);"></rect></g><g><rect class="ch-subdomain-bg" width="10" height="10" x="528" y="12" rx="2" ry="2" style="fill: rgb(232, 94, 14);"></rect></g><g><rect class="ch-subdomain-bg" width="10" height="10" x="528" y="24" rx="2" ry="2" style="fill: rgb(239, 106, 23);"></rect></g><g><rect class="ch-subdomain-bg" width="10" height="10" x="528" y="36" rx="2" ry="2" style="fill: rgb(224, 84, 8);"></rect></g><g><rect class="ch-subdomain-bg" width="10" height="10" x="528" y="48" rx="2" ry="2" style="fill: rgb(252, 147, 69);"></rect></g><g><rect class="ch-subdomain-bg" width="10" height="10" x="528" y="60" rx="2" ry="2" style="fill: rgb(253, 212, 172);"></rect></g><g><rect class="ch-subdomain-bg" width="10" height="10" x="528" y="72" rx="2" ry="2" style="fill: rgb(253, 195, 142);"></rect></g><g><rect class="ch-subdomain-bg" width="10" height="10" x="540" y="0" rx="2" ry="2" style="fill: rgb(251, 141, 61);"></rect></g><g><rect class="ch-subdomain-bg" width="10" height="10" x="540" y="12" rx="2" ry="2" style="fill: rgb(254, 225, 197);"></rect></g><g><rect class="ch-subdomain-bg" width="10" height="10" x="540" y="24" rx="2" ry="2" style="fill: rgb(243, 113, 30);"></rect></g><g><rect class="ch-subdomain-bg" width="10" height="10" x="540" y="36" rx="2" ry="2" style="fill: rgb(254, 230, 207);"></rect></g><g><rect class="ch-subdomain-bg" width="10" height="10" x="540" y="48" rx="2" ry="2" style="fill: rgb(255, 245, 235);"></rect></g><g><rect class="ch-subdomain-bg" width="10" height="10" x="540" y="60" rx="2" ry="2" style="fill: rgb(253, 174, 108);"></rect></g><g><rect class="ch-subdomain-bg" width="10" height="10" x="540" y="72" rx="2" ry="2" style="fill: rgb(234, 97, 16);"></rect></g><g><rect class="ch-subdomain-bg" width="10" height="10" x="552" y="0" rx="2" ry="2" style="fill: rgb(253, 207, 161);"></rect></g><g><rect class="ch-subdomain-bg" width="10" height="10" x="552" y="12" rx="2" ry="2" style="fill: rgb(254, 236, 218);"></rect></g><g><rect class="ch-subdomain-bg" width="10" height="10" x="552" y="24" rx="2" ry="2" style="fill: rgb(253, 160, 87);"></rect></g><g><rect class="ch-subdomain-bg" width="10" height="10" x="552" y="36" rx="2" ry="2" style="fill: rgb(250, 134, 52);"></rect></g><g><rect class="ch-subdomain-bg" width="10" height="10" x="552" y="48" rx="2" ry="2" style="fill: rgb(253, 197, 144);"></rect></g><g><rect class="ch-subdomain-bg" width="10" height="10" x="552" y="60" rx="2" ry="2" style="fill: rgb(255, 245, 235);"></rect></g><g><rect class="ch-subdomain-bg" width="10" height="10" x="552" y="72" rx="2" ry="2" style="fill: rgb(253, 213, 173);"></rect></g><g><rect class="ch-subdomain-bg" width="10" height="10" x="564" y="0" rx="2" ry="2" style="fill: rgb(255, 245, 235);"></rect></g><g><rect class="ch-subdomain-bg" width="10" height="10" x="564" y="12" rx="2" ry="2" style="fill: rgb(238, 104, 22);"></rect></g><g><rect class="ch-subdomain-bg" width="10" height="10" x="564" y="24" rx="2" ry="2" style="fill: rgb(253, 153, 78);"></rect></g><g><rect class="ch-subdomain-bg" width="10" height="10" x="564" y="36" rx="2" ry="2" style="fill: rgb(254, 229, 204);"></rect></g><g><rect class="ch-subdomain-bg" width="10" height="10" x="564" y="48" rx="2" ry="2" style="fill: rgb(255, 245, 235);"></rect></g><g><rect class="ch-subdomain-bg" width="10" height="10" x="564" y="60" rx="2" ry="2" style="fill: rgb(254, 226, 198);"></rect></g><g><rect class="ch-subdomain-bg" width="10" height="10" x="564" y="72" rx="2" ry="2" style="fill: rgb(254, 232, 210);"></rect></g><g><rect class="ch-subdomain-bg" width="10" height="10" x="576" y="0" rx="2" ry="2" style="fill: rgb(255, 238, 222);"></rect></g><g><rect class="ch-subdomain-bg" width="10" height="10" x="576" y="12" rx="2" ry="2" style="fill: rgb(255, 245, 235);"></rect></g><g><rect class="ch-subdomain-bg" width="10" height="10" x="576" y="24" rx="2" ry="2" style="fill: rgb(255, 245, 235);"></rect></g><g><rect class="ch-subdomain-bg" width="10" height="10" x="576" y="36" rx="2" ry="2" style="fill: rgb(255, 245, 235);"></rect></g><g><rect class="ch-subdomain-bg" width="10" height="10" x="576" y="48" rx="2" ry="2" style="fill: rgb(191, 63, 2);"></rect></g><g><rect class="ch-subdomain-bg" width="10" height="10" x="576" y="60" rx="2" ry="2" style="fill: rgb(255, 245, 235);"></rect></g><g><rect class="ch-subdomain-bg" width="10" height="10" x="576" y="72" rx="2" ry="2" style="fill: rgb(255, 245, 235);"></rect></g><g><rect class="ch-subdomain-bg" width="10" height="10" x="588" y="0" rx="2" ry="2" style="fill: rgb(255, 241, 228);"></rect></g><g><rect class="ch-subdomain-bg" width="10" height="10" x="588" y="12" rx="2" ry="2" style="fill: rgb(255, 245, 235);"></rect></g><g><rect class="ch-subdomain-bg" width="10" height="10" x="588" y="24" rx="2" ry="2" style="fill: rgb(245, 118, 35);"></rect></g><g><rect class="ch-subdomain-bg" width="10" height="10" x="588" y="36" rx="2" ry="2" style="fill: rgb(255, 245, 235);"></rect></g><g><rect class="ch-subdomain-bg" width="10" height="10" x="588" y="48" rx="2" ry="2" style="fill: rgb(254, 225, 195);"></rect></g><g><rect class="ch-subdomain-bg" width="10" height="10" x="588" y="60" rx="2" ry="2" style="fill: rgb(255, 241, 228);"></rect></g><g><rect class="ch-subdomain-bg" width="10" height="10" x="588" y="72" rx="2" ry="2" style="fill: rgb(218, 79, 6);"></rect></g><g><rect class="ch-subdomain-bg" width="10" height="10" x="600" y="0" rx="2" ry="2" style="fill: rgb(253, 204, 157);"></rect></g><g><rect class="ch-subdomain-bg" width="10" height="10" x="600" y="12" rx="2" ry="2" style="fill: rgb(255, 245, 235);"></rect></g><g><rect class="ch-subdomain-bg" width="10" height="10" x="600" y="24" rx="2" ry="2" style="fill: rgb(226, 86, 10);"></rect></g><g><rect class="ch-subdomain-bg" width="10" height="10" x="600" y="36" rx="2" ry="2" style="fill: rgb(253, 180, 118);"></rect></g><g><rect class="ch-subdomain-bg" width="10" height="10" x="600" y="48" rx="2" ry="2" style="fill: rgb(252, 149, 72);"></rect></g><g><rect class="ch-subdomain-bg" width="10" height="10" x="600" y="60" rx="2" ry="2" style="fill: rgb(127, 39, 4);"></rect></g><g><rect class="ch-subdomain-bg" width="10" height="10" x="600" y="72" rx="2" ry="2" style="fill: rgb(254, 218, 183);"></rect></g><g><rect class="ch-subdomain-bg" width="10" height="10" x="612" y="0" rx="2" ry="2" style="fill: rgb(253, 205, 158);"></rect></g><g><rect class="ch-subdomain-bg" width="10" height="10" x="612" y="12" rx="2" ry="2" style="fill: rgb(183, 60, 2);"></rect></g><g><rect class="ch-subdomain-bg" width="10" height="10" x="612" y="24" rx="2" ry="2" style="fill: rgb(138, 43, 4);"></rect></g><g><rect class="ch-subdomain-bg" width="10" height="10" x="612" y="36" rx="2" ry="2" style="fill: rgb(131, 41, 4);"></rect></g><g><rect class="ch-subdomain-bg" width="10" height="10" x="612" y="48" rx="2" ry="2" style="fill: rgb(255, 245, 235);"></rect></g><g><rect class="ch-subdomain-bg" width="10" height="10" x="612" y="60" rx="2" ry="2" style="fill: rgb(253, 198, 147);"></rect></g><g><rect class="ch-subdomain-bg" width="10" height="10" x="612" y="72" rx="2" ry="2" style="fill: rgb(211, 73, 4);"></rect></g><g><rect class="ch-subdomain-bg" width="10" height="10" x="624" y="0" rx="2" ry="2" style="fill: rgb(127, 39, 4);"></rect></g></svg><text class="ch-domain-text" x="317" y="94.5" text-anchor="middle" dominant-baseline="middle">2023</text></svg></svg></svg></svg>